{
.appVersion = "1230";
copyright = "Copyright 2019 Google Inc. All Rights Reserved.";
customParameters = (
{
name = glyphOrder;
value = (
.notdef,
NULL,
CR,
space,
nbspace,
uni200C,
uni200D,
uni25CC,
fullstop.ar,
comma.ar,
semicolon.ar,
question.ar,
kashida.ar,
uni10D00,
uni10D00.init,
uni10D01,
uni10D01.medi,
uni10D01.init,
uni10D01.fina,
uni10D02,
uni10D02.init,
uni10D02.medi,
uni10D02.fina,
uni10D03,
uni10D03.init,
uni10D03.medi,
uni10D03.fina,
uni10D04,
uni10D04.init,
uni10D04.medi,
uni10D04.fina,
uni10D05,
uni10D05.init,
uni10D05.medi,
uni10D05.fina,
uni10D06,
uni10D06.init,
uni10D06.medi,
uni10D06.fina,
uni10D07,
uni10D07.medi,
uni10D07.init,
uni10D07.fina,
uni10D08,
uni10D08.init,
uni10D08.medi,
uni10D08.fina,
uni10D09,
uni10D09.medi,
uni10D09.init,
uni10D09.fina,
uni10D0A,
uni10D0A.init,
uni10D0A.medi,
uni10D0A.fina,
uni10D0B,
uni10D0B.init,
uni10D0B.medi,
uni10D0B.fina,
uni10D0C,
uni10D0C.init,
uni10D0C.medi,
uni10D0C.fina,
uni10D0D,
uni10D0D.init,
uni10D0D.medi,
uni10D0D.fina,
uni10D0E,
uni10D0E.init,
uni10D0E.medi,
uni10D0E.fina,
uni10D0F,
uni10D0F.init,
uni10D0F.medi,
uni10D0F.fina,
uni10D10,
uni10D10.init,
uni10D10.medi,
uni10D10.fina,
uni10D11,
uni10D11.init,
uni10D11.medi,
uni10D11.fina,
uni10D12,
uni10D12.init,
uni10D12.medi,
uni10D12.fina,
uni10D13,
uni10D13.init,
uni10D13.medi,
uni10D13.fina,
uni10D14,
uni10D14.init,
uni10D14.medi,
uni10D14.fina,
uni10D15,
uni10D15.init,
uni10D15.medi,
uni10D15.fina,
uni10D16,
uni10D16.init,
uni10D16.medi,
uni10D16.fina,
uni10D17,
uni10D17.init,
uni10D17.medi,
uni10D17.fina,
uni10D18,
uni10D18.init,
uni10D18.medi,
uni10D18.fina,
uni10D19,
uni10D19.medi,
uni10D19.init,
uni10D19.fina,
uni10D1A,
uni10D1A.init,
uni10D1A.medi,
uni10D1A.fina,
uni10D1B,
uni10D1B.init,
uni10D1B.medi,
uni10D1B.fina,
uni10D1C,
uni10D1C.init,
uni10D1C.medi,
uni10D1C.fina,
uni10D1D,
uni10D1D.medi,
uni10D1D.init,
uni10D1D.fina,
uni10D1E,
uni10D1E.fina,
uni10D1E.medi,
uni10D1E.init,
uni10D1F,
uni10D1F.init,
uni10D1F.medi,
uni10D1F.fina,

glyphs = (
{
glyphname = .notdef;
lastChange = "2018-12-11 14:19:31 +0000";
layers = (
{
layerId = UUID0;
paths = (
{
closed = 1;
nodes = (
"505 0 LINE",
"505 714 LINE",
"94 714 LINE",
"94 0 LINE"
);
},
{
closed = 1;
nodes = (
"145 663 LINE",
"454 663 LINE",
"454 51 LINE",
"145 51 LINE"
);
}
);
width = 600;
}
);
category = Letter;
},
{
glyphname = uni25CC;
lastChange = "2018-12-11 14:19:31 +0000";
layers = (
{
layerId = UUID0;
paths = (
{
closed = 1;
nodes = (
"469 423 OFFCURVE",
"481 435 OFFCURVE",
"481 449 CURVE SMOOTH",
"481 463 OFFCURVE",
"469 475 OFFCURVE",
"455 475 CURVE SMOOTH",
"441 475 OFFCURVE",
"429 463 OFFCURVE",
"429 449 CURVE SMOOTH",
"429 435 OFFCURVE",
"441 423 OFFCURVE",
"455 423 CURVE SMOOTH"
);
},
{
closed = 1;
nodes = (
"153 107 OFFCURVE",
"165 119 OFFCURVE",
"165 133 CURVE SMOOTH",
"165 147 OFFCURVE",
"153 159 OFFCURVE",
"139 159 CURVE SMOOTH",
"125 159 OFFCURVE",
"113 147 OFFCURVE",
"113 133 CURVE SMOOTH",
"113 119 OFFCURVE",
"125 107 OFFCURVE",
"139 107 CURVE SMOOTH"
);
},
{
closed = 1;
nodes = (
"227 60 OFFCURVE",
"239 72 OFFCURVE",
"239 86 CURVE SMOOTH",
"239 100 OFFCURVE",
"227 112 OFFCURVE",
"213 112 CURVE SMOOTH",
"199 112 OFFCURVE",
"187 100 OFFCURVE",
"187 86 CURVE SMOOTH",
"187 72 OFFCURVE",
"199 60 OFFCURVE",
"213 60 CURVE SMOOTH"
);
},
{
closed = 1;
nodes = (
"106 181 OFFCURVE",
"118 193 OFFCURVE",
"118 207 CURVE SMOOTH",
"118 221 OFFCURVE",
"106 233 OFFCURVE",
"92 233 CURVE SMOOTH",
"78 233 OFFCURVE",
"66 221 OFFCURVE",
"66 207 CURVE SMOOTH",
"66 193 OFFCURVE",
"78 181 OFFCURVE",
"92 181 CURVE SMOOTH"
);
},
{
closed = 1;
nodes = (
"311 42 OFFCURVE",
"323 54 OFFCURVE",
"323 68 CURVE SMOOTH",
"323 82 OFFCURVE",
"311 94 OFFCURVE",
"297 94 CURVE SMOOTH",
"283 94 OFFCURVE",
"271 82 OFFCURVE",
"271 68 CURVE SMOOTH",
"271 54 OFFCURVE",
"283 42 OFFCURVE",
"297 42 CURVE SMOOTH"
);
},
{
closed = 1;
nodes = (
"88 265 OFFCURVE",
"100 277 OFFCURVE",
"100 291 CURVE SMOOTH",
"100 305 OFFCURVE",
"88 317 OFFCURVE",
"74 317 CURVE SMOOTH",
"60 317 OFFCURVE",
"48 305 OFFCURVE",
"48 291 CURVE SMOOTH",
"48 277 OFFCURVE",
"60 265 OFFCURVE",
"74 265 CURVE SMOOTH"
);
},
{
closed = 1;
nodes = (
"395 60 OFFCURVE",
"407 72 OFFCURVE",
"407 86 CURVE SMOOTH",
"407 100 OFFCURVE",
"395 112 OFFCURVE",
"381 112 CURVE SMOOTH",
"367 112 OFFCURVE",
"355 100 OFFCURVE",
"355 86 CURVE SMOOTH",
"355 72 OFFCURVE",
"367 60 OFFCURVE",
"381 60 CURVE SMOOTH"
);
},
{
closed = 1;
nodes = (
"106 349 OFFCURVE",
"118 361 OFFCURVE",
"118 375 CURVE SMOOTH",
"118 389 OFFCURVE",
"106 401 OFFCURVE",
"92 401 CURVE SMOOTH",
"78 401 OFFCURVE",
"66 389 OFFCURVE",
"66 375 CURVE SMOOTH",
"66 361 OFFCURVE",
"78 349 OFFCURVE",
"92 349 CURVE SMOOTH"
);
},
{
closed = 1;
nodes = (
"153 423 OFFCURVE",
"165 435 OFFCURVE",
"165 449 CURVE SMOOTH",
"165 463 OFFCURVE",
"153 475 OFFCURVE",
"139 475 CURVE SMOOTH",
"125 475 OFFCURVE",
"113 463 OFFCURVE",
"113 449 CURVE SMOOTH",
"113 435 OFFCURVE",
"125 423 OFFCURVE",
"139 423 CURVE SMOOTH"
);
},
{
closed = 1;
nodes = (
"469 107 OFFCURVE",
"481 119 OFFCURVE",
"481 133 CURVE SMOOTH",
"481 147 OFFCURVE",
"469 159 OFFCURVE",
"455 159 CURVE SMOOTH",
"441 159 OFFCURVE",
"429 147 OFFCURVE",
"429 133 CURVE SMOOTH",
"429 119 OFFCURVE",
"441 107 OFFCURVE",
"455 107 CURVE SMOOTH"
);
},
{
closed = 1;
nodes = (
"227 470 OFFCURVE",
"239 482 OFFCURVE",
"239 496 CURVE SMOOTH",
"239 510 OFFCURVE",
"227 522 OFFCURVE",
"213 522 CURVE SMOOTH",
"199 522 OFFCURVE",
"187 510 OFFCURVE",
"187 496 CURVE SMOOTH",
"187 482 OFFCURVE",
"199 470 OFFCURVE",
"213 470 CURVE SMOOTH"
);
},
{
closed = 1;
nodes = (
"516 181 OFFCURVE",
"528 193 OFFCURVE",
"528 207 CURVE SMOOTH",
"528 221 OFFCURVE",
"516 233 OFFCURVE",
"502 233 CURVE SMOOTH",
"488 233 OFFCURVE",
"476 221 OFFCURVE",
"476 207 CURVE SMOOTH",
"476 193 OFFCURVE",
"488 181 OFFCURVE",
"502 181 CURVE SMOOTH"
);
},
{
closed = 1;
nodes = (
"311 488 OFFCURVE",
"323 500 OFFCURVE",
"323 514 CURVE SMOOTH",
"323 528 OFFCURVE",
"311 540 OFFCURVE",
"297 540 CURVE SMOOTH",
"283 540 OFFCURVE",
"271 528 OFFCURVE",
"271 514 CURVE SMOOTH",
"271 500 OFFCURVE",
"283 488 OFFCURVE",
"297 488 CURVE SMOOTH"
);
},
{
closed = 1;
nodes = (
"534 265 OFFCURVE",
"546 277 OFFCURVE",
"546 291 CURVE SMOOTH",
"546 305 OFFCURVE",
"534 317 OFFCURVE",
"520 317 CURVE SMOOTH",
"506 317 OFFCURVE",
"494 305 OFFCURVE",
"494 291 CURVE SMOOTH",
"494 277 OFFCURVE",
"506 265 OFFCURVE",
"520 265 CURVE SMOOTH"
);
},
{
closed = 1;
nodes = (
"395 470 OFFCURVE",
"407 482 OFFCURVE",
"407 496 CURVE SMOOTH",
"407 510 OFFCURVE",
"395 522 OFFCURVE",
"381 522 CURVE SMOOTH",
"367 522 OFFCURVE",
"355 510 OFFCURVE",
"355 496 CURVE SMOOTH",
"355 482 OFFCURVE",
"367 470 OFFCURVE",
"381 470 CURVE SMOOTH"
);
},
{
closed = 1;
nodes = (
"516 349 OFFCURVE",
"528 361 OFFCURVE",
"528 375 CURVE SMOOTH",
"528 389 OFFCURVE",
"516 401 OFFCURVE",
"502 401 CURVE SMOOTH",
"488 401 OFFCURVE",
"476 389 OFFCURVE",
"476 375 CURVE SMOOTH",
"476 361 OFFCURVE",
"488 349 OFFCURVE",
"502 349 CURVE SMOOTH"
);
}
);
width = 594;
}
);
note = uni25CC;
unicode = 25CC;
category = Letter;
},
{
glyphname = fullstop.ar;
lastChange = "2018-12-11 14:19:31 +0000";
layers = (
{
layerId = UUID0;
paths = (
{
closed = 1;
nodes = (
"167 -14 OFFCURVE",
"196 6 OFFCURVE",
"196 54 CURVE SMOOTH",
"196 103 OFFCURVE",
"167 121 OFFCURVE",
"133 121 CURVE SMOOTH",
"99 121 OFFCURVE",
"72 103 OFFCURVE",
"72 54 CURVE SMOOTH",
"72 6 OFFCURVE",
"99 -14 OFFCURVE",
"133 -14 CURVE SMOOTH"
);
}
);
width = 268;
}
);
unicode = 06D4;
category = Letter;
},
{
glyphname = comma.ar;
lastChange = "2018-12-11 14:19:31 +0000";
layers = (
{
layerId = UUID0;
paths = (
{
closed = 1;
nodes = (
"106 -129 LINE",
"138 -57 OFFCURVE",
"174 34 OFFCURVE",
"192 105 CURVE",
"185 116 LINE",
"91 116 LINE",
"81 46 OFFCURVE",
"60 -53 OFFCURVE",
"41 -129 CURVE"
);
}
);
width = 268;
}
);
unicode = 060C;
category = Letter;
},
{
glyphname = semicolon.ar;
lastChange = "2018-12-11 14:19:31 +0000";
layers = (
{
layerId = UUID0;
paths = (
{
closed = 1;
nodes = (
"184 255 LINE",
"194 325 OFFCURVE",
"215 424 OFFCURVE",
"234 500 CURVE",
"169 500 LINE",
"137 428 OFFCURVE",
"101 337 OFFCURVE",
"83 266 CURVE",
"90 255 LINE"
);
},
{
closed = 1;
nodes = (
"167 -14 OFFCURVE",
"196 6 OFFCURVE",
"196 54 CURVE SMOOTH",
"196 103 OFFCURVE",
"167 121 OFFCURVE",
"133 121 CURVE SMOOTH",
"99 121 OFFCURVE",
"72 103 OFFCURVE",
"72 54 CURVE SMOOTH",
"72 6 OFFCURVE",
"99 -14 OFFCURVE",
"133 -14 CURVE SMOOTH"
);
}
);
width = 344;
}
);
unicode = 061B;
category = Letter;
},
{
glyphname = question.ar;
lastChange = "2018-12-11 14:19:31 +0000";
layers = (
{
layerId = UUID0;
paths = (
{
closed = 1;
nodes = (
"280 201 LINE",
"280 228 LINE SMOOTH",
"280 303 OFFCURVE",
"261 343 OFFCURVE",
"196 398 CURVE SMOOTH",
"119 463 OFFCURVE",
"96 487 OFFCURVE",
"96 547 CURVE SMOOTH",
"96 611 OFFCURVE",
"139 647 OFFCURVE",
"217 647 CURVE SMOOTH",
"283 647 OFFCURVE",
"331 627 OFFCURVE",
"377 605 CURVE",
"408 675 LINE",
"355 703 OFFCURVE",
"291 724 OFFCURVE",
"211 724 CURVE SMOOTH",
"84 724 OFFCURVE",
"12 657 OFFCURVE",
"12 549 CURVE SMOOTH",
"12 459 OFFCURVE",
"58 418 OFFCURVE",
"130 358 CURVE SMOOTH",
"197 302 OFFCURVE",
"210 275 OFFCURVE",
"210 218 CURVE SMOOTH",
"210 201 LINE"
);
},
{
closed = 1;
nodes = (
"277 -14 OFFCURVE",
"303 6 OFFCURVE",
"303 54 CURVE SMOOTH",
"303 103 OFFCURVE",
"277 121 OFFCURVE",
"241 121 CURVE SMOOTH",
"208 121 OFFCURVE",
"180 103 OFFCURVE",
"180 54 CURVE SMOOTH",
"180 6 OFFCURVE",
"208 -14 OFFCURVE",
"241 -14 CURVE SMOOTH"
);
}
);
width = 434;
}
);
unicode = 061F;
category = Letter;
},
{
glyphname = kashida.ar;
lastChange = "2019-08-04 20:47:24 +0000";
layers = (
{
layerId = UUID0;
paths = (
{
closed = 1;
nodes = (
"284 0 LINE",
"284 78 LINE",
"51 78 LINE",
"51 0 LINE"
);
},
{
closed = 1;
nodes = (
"55 0 LINE",
"55 78 LINE",
"-25 78 LINE",
"-25 16 LINE",
"-14 10 OFFCURVE",
"17 0 OFFCURVE",
"43 0 CURVE SMOOTH"
);
}
);
width = 250;
}
);
unicode = 0640;
},
{
glyphname = uni10D00.init;
lastChange = "2019-08-04 20:47:24 +0000";
layers = (
{
layerId = UUID0;
paths = (
{
closed = 1;
nodes = (
"124 0 LINE SMOOTH",
"273 0 OFFCURVE",
"408 73 OFFCURVE",
"408 288 CURVE SMOOTH",
"408 542 LINE SMOOTH",
"408 656 OFFCURVE",
"354 714 OFFCURVE",
"270 714 CURVE SMOOTH",
"186 714 OFFCURVE",
"130 656 OFFCURVE",
"130 542 CURVE SMOOTH",
"130 191 LINE SMOOTH",
"130 134 OFFCURVE",
"149 88 OFFCURVE",
"165 73 CURVE",
"235 79 LINE",
"215 116 OFFCURVE",
"209 152 OFFCURVE",
"209 191 CURVE SMOOTH",
"209 542 LINE SMOOTH",
"209 614 OFFCURVE",
"236 636 OFFCURVE",
"266 636 CURVE SMOOTH",
"296 636 OFFCURVE",
"319 614 OFFCURVE",
"319 542 CURVE SMOOTH",
"319 288 LINE SMOOTH",
"319 119 OFFCURVE",
"224 78 OFFCURVE",
"128 78 CURVE SMOOTH",
"39 78 LINE",
"39 0 LINE"
);
},
{
closed = 1;
nodes = (
"46 0 LINE",
"46 78 LINE",
"-34 78 LINE",
"-34 16 LINE",
"-23 10 OFFCURVE",
"8 0 OFFCURVE",
"34 0 CURVE SMOOTH"
);
}
);
width = 488;
}
);
rightMetricsKey = uni10D00;
category = Letter;
},
{
glyphname = uni10D01.medi;
lastChange = "2019-08-04 20:47:24 +0000";
layers = (
{
layerId = UUID0;
paths = (
{
closed = 1;
nodes = (
"63 0 LINE SMOOTH",
"219 0 OFFCURVE",
"309 95 OFFCURVE",
"309 289 CURVE SMOOTH",
"309 596 LINE SMOOTH",
"309 677 OFFCURVE",
"256 713 OFFCURVE",
"187 713 CURVE SMOOTH",
"71 713 LINE",
"71 635 LINE",
"220 635 LINE",
"220 289 LINE SMOOTH",
"220 137 OFFCURVE",
"160 78 OFFCURVE",
"63 78 CURVE SMOOTH",
"40 78 LINE",
"40 0 LINE"
);
},
{
closed = 1;
nodes = (
"46 0 LINE",
"46 78 LINE",
"-34 78 LINE",
"-34 16 LINE",
"-23 10 OFFCURVE",
"8 0 OFFCURVE",
"34 0 CURVE SMOOTH"
);
},
{
closed = 1;
nodes = (
"435 0 LINE",
"435 78 LINE",
"425 78 LINE SMOOTH",
"363 78 OFFCURVE",
"308 99 OFFCURVE",
"272 155 CURVE",
"246 92 LINE",
"281 34 OFFCURVE",
"357 0 OFFCURVE",
"425 0 CURVE SMOOTH"
);
}
);
width = 401;
}
);
category = Letter;
},
{
glyphname = uni10D01.init;
lastChange = "2019-08-04 20:47:24 +0000";
layers = (
{
layerId = UUID0;
paths = (
{
closed = 1;
nodes = (
"63 0 LINE SMOOTH",
"219 0 OFFCURVE",
"309 95 OFFCURVE",
"309 289 CURVE SMOOTH",
"309 596 LINE SMOOTH",
"309 677 OFFCURVE",
"256 713 OFFCURVE",
"187 713 CURVE SMOOTH",
"71 713 LINE",
"71 635 LINE",
"220 635 LINE",
"220 289 LINE SMOOTH",
"220 137 OFFCURVE",
"160 78 OFFCURVE",
"63 78 CURVE SMOOTH",
"40 78 LINE",
"40 0 LINE"
);
},
{
closed = 1;
nodes = (
"46 0 LINE",
"46 78 LINE",
"-34 78 LINE",
"-34 16 LINE",
"-23 10 OFFCURVE",
"8 0 OFFCURVE",
"34 0 CURVE SMOOTH"
);
}
);
width = 389;
}
);
leftMetricsKey = uni10D01.medi;
rightMetricsKey = uni10D01;
category = Letter;
},
{
glyphname = uni10D02.init;
lastChange = "2019-08-04 20:47:24 +0000";
layers = (
{
layerId = UUID0;
paths = (
{
closed = 1;
nodes = (
"56 0 LINE SMOOTH",
"247 0 OFFCURVE",
"357 140 OFFCURVE",
"357 332 CURVE SMOOTH",
"357 465 OFFCURVE",
"295 536 OFFCURVE",
"191 536 CURVE SMOOTH",
"100 536 OFFCURVE",
"45 472 OFFCURVE",
"45 395 CURVE SMOOTH",
"45 308 OFFCURVE",
"120 245 OFFCURVE",
"239 245 CURVE SMOOTH",
"284 245 LINE",
"284 323 LINE",
"250 323 LINE SMOOTH",
"171 323 OFFCURVE",
"134 356 OFFCURVE",
"134 395 CURVE SMOOTH",
"134 435 OFFCURVE",
"160 458 OFFCURVE",
"194 458 CURVE SMOOTH",
"234 458 OFFCURVE",
"268 428 OFFCURVE",
"268 332 CURVE SMOOTH",
"268 180 OFFCURVE",
"185 78 OFFCURVE",
"56 78 CURVE SMOOTH",
"42 78 LINE",
"42 0 LINE"
);
},
{
closed = 1;
nodes = (
"46 0 LINE",
"46 78 LINE",
"-34 78 LINE",
"-34 16 LINE",
"-23 10 OFFCURVE",
"8 0 OFFCURVE",
"34 0 CURVE SMOOTH"
);
}
);
width = 402;
}
);
leftMetricsKey = uni10D02.medi;
rightMetricsKey = uni10D02;
category = Letter;
},
{
glyphname = uni10D02.medi;
lastChange = "2019-08-04 20:47:24 +0000";
layers = (
{
layerId = UUID0;
paths = (
{
closed = 1;
nodes = (
"56 0 LINE SMOOTH",
"247 0 OFFCURVE",
"357 140 OFFCURVE",
"357 332 CURVE SMOOTH",
"357 465 OFFCURVE",
"295 536 OFFCURVE",
"191 536 CURVE SMOOTH",
"100 536 OFFCURVE",
"45 472 OFFCURVE",
"45 395 CURVE SMOOTH",
"45 308 OFFCURVE",
"120 245 OFFCURVE",
"239 245 CURVE SMOOTH",
"284 245 LINE",
"284 323 LINE",
"250 323 LINE SMOOTH",
"171 323 OFFCURVE",
"134 356 OFFCURVE",
"134 395 CURVE SMOOTH",
"134 435 OFFCURVE",
"160 458 OFFCURVE",
"194 458 CURVE SMOOTH",
"234 458 OFFCURVE",
"268 428 OFFCURVE",
"268 332 CURVE SMOOTH",
"268 180 OFFCURVE",
"185 78 OFFCURVE",
"56 78 CURVE SMOOTH",
"42 78 LINE",
"42 0 LINE"
);
},
{
closed = 1;
nodes = (
"46 0 LINE",
"46 78 LINE",
"-34 78 LINE",
"-34 16 LINE",
"-23 10 OFFCURVE",
"8 0 OFFCURVE",
"34 0 CURVE SMOOTH"
);
},
{
closed = 1;
nodes = (
"449 0 LINE",
"449 78 LINE",
"439 78 LINE SMOOTH",
"377 78 OFFCURVE",
"322 99 OFFCURVE",
"286 155 CURVE",
"260 92 LINE",
"295 34 OFFCURVE",
"371 0 OFFCURVE",
"439 0 CURVE SMOOTH"
);
}
);
width = 415;
}
);
category = Letter;
},
{
glyphname = uni10D03.init;
lastChange = "2019-08-04 20:47:24 +0000";
layers = (
{
layerId = UUID0;
paths = (
{
closed = 1;
nodes = (
"49 0 LINE SMOOTH",
"231 0 OFFCURVE",
"309 95 OFFCURVE",
"309 289 CURVE SMOOTH",
"309 596 LINE SMOOTH",
"309 677 OFFCURVE",
"256 714 OFFCURVE",
"187 714 CURVE SMOOTH",
"125 714 LINE SMOOTH",
"56 714 OFFCURVE",
"14 664 OFFCURVE",
"14 596 CURVE SMOOTH",
"14 515 LINE",
"103 515 LINE",
"103 664 LINE",
"73 636 LINE",
"220 636 LINE",
"220 289 LINE SMOOTH",
"220 137 OFFCURVE",
"172 78 OFFCURVE",
"49 78 CURVE SMOOTH",
"41 78 LINE",
"41 0 LINE"
);
},
{
closed = 1;
nodes = (
"46 0 LINE",
"46 78 LINE",
"-34 78 LINE",
"-34 16 LINE",
"-23 10 OFFCURVE",
"8 0 OFFCURVE",
"34 0 CURVE SMOOTH"
);
}
);
width = 389;
}
);
leftMetricsKey = uni10D03.medi;
rightMetricsKey = uni10D03;
category = Letter;
},
{
glyphname = uni10D03.medi;
lastChange = "2019-08-04 20:47:24 +0000";
layers = (
{
layerId = UUID0;
paths = (
{
closed = 1;
nodes = (
"49 0 LINE SMOOTH",
"231 0 OFFCURVE",
"309 95 OFFCURVE",
"309 289 CURVE SMOOTH",
"309 596 LINE SMOOTH",
"309 677 OFFCURVE",
"256 714 OFFCURVE",
"187 714 CURVE SMOOTH",
"125 714 LINE SMOOTH",
"56 714 OFFCURVE",
"14 664 OFFCURVE",
"14 596 CURVE SMOOTH",
"14 515 LINE",
"103 515 LINE",
"103 664 LINE",
"73 636 LINE",
"220 636 LINE",
"220 289 LINE SMOOTH",
"220 137 OFFCURVE",
"172 78 OFFCURVE",
"49 78 CURVE SMOOTH",
"41 78 LINE",
"41 0 LINE"
);
},
{
closed = 1;
nodes = (
"46 0 LINE",
"46 78 LINE",
"-34 78 LINE",
"-34 16 LINE",
"-23 10 OFFCURVE",
"8 0 OFFCURVE",
"34 0 CURVE SMOOTH"
);
},
{
closed = 1;
nodes = (
"435 0 LINE",
"435 78 LINE",
"425 78 LINE SMOOTH",
"363 78 OFFCURVE",
"308 99 OFFCURVE",
"272 155 CURVE",
"246 92 LINE",
"281 34 OFFCURVE",
"357 0 OFFCURVE",
"425 0 CURVE SMOOTH"
);
}
);
width = 401;
}
);
category = Letter;
},
{
glyphname = uni10D04.init;
lastChange = "2019-08-04 20:47:24 +0000";
layers = (
{
layerId = UUID0;
paths = (
{
closed = 1;
nodes = (
"63 0 LINE SMOOTH",
"213 0 OFFCURVE",
"299 75 OFFCURVE",
"299 269 CURVE SMOOTH",
"299 635 LINE",
"468 635 LINE",
"468 713 LINE",
"332 713 LINE SMOOTH",
"263 713 OFFCURVE",
"210 677 OFFCURVE",
"210 596 CURVE SMOOTH",
"210 269 LINE SMOOTH",
"210 123 OFFCURVE",
"161 78 OFFCURVE",
"63 78 CURVE SMOOTH",
"42 78 LINE",
"42 0 LINE"
);
},
{
closed = 1;
nodes = (
"46 0 LINE",
"46 78 LINE",
"-34 78 LINE",
"-34 16 LINE",
"-23 10 OFFCURVE",
"8 0 OFFCURVE",
"34 0 CURVE SMOOTH"
);
}
);
width = 478;
}
);
leftMetricsKey = uni10D04.medi;
rightMetricsKey = uni10D04;
category = Letter;
},
{
glyphname = uni10D04.medi;
lastChange = "2019-08-04 20:47:24 +0000";
layers = (
{
layerId = UUID0;
paths = (
{
closed = 1;
nodes = (
"63 0 LINE SMOOTH",
"213 0 OFFCURVE",
"299 75 OFFCURVE",
"299 269 CURVE SMOOTH",
"299 635 LINE",
"468 635 LINE",
"468 713 LINE",
"332 713 LINE SMOOTH",
"263 713 OFFCURVE",
"210 677 OFFCURVE",
"210 596 CURVE SMOOTH",
"210 269 LINE SMOOTH",
"210 123 OFFCURVE",
"161 78 OFFCURVE",
"63 78 CURVE SMOOTH",
"42 78 LINE",
"42 0 LINE"
);
},
{
closed = 1;
nodes = (
"46 0 LINE",
"46 78 LINE",
"-34 78 LINE",
"-34 16 LINE",
"-23 10 OFFCURVE",
"8 0 OFFCURVE",
"34 0 CURVE SMOOTH"
);
},
{
closed = 1;
nodes = (
"508 0 LINE",
"508 78 LINE",
"418 78 LINE SMOOTH",
"356 78 OFFCURVE",
"301 99 OFFCURVE",
"265 155 CURVE",
"239 92 LINE",
"274 34 OFFCURVE",
"350 0 OFFCURVE",
"418 0 CURVE SMOOTH"
);
}
);
width = 474;
}
);
category = Letter;
},
{
glyphname = uni10D05.init;
lastChange = "2019-08-04 20:47:24 +0000";
layers = (
{
layerId = UUID0;
paths = (
{
closed = 1;
nodes = (
"401 0 OFFCURVE",
"479 54 OFFCURVE",
"479 199 CURVE SMOOTH",
"479 596 LINE SMOOTH",
"479 677 OFFCURVE",
"426 714 OFFCURVE",
"357 714 CURVE SMOOTH",
"275 714 LINE SMOOTH",
"206 714 OFFCURVE",
"164 664 OFFCURVE",
"164 596 CURVE SMOOTH",
"164 565 LINE",
"253 565 LINE",
"253 664 LINE",
"223 636 LINE",
"390 636 LINE",
"390 199 LINE SMOOTH",
"390 110 OFFCURVE",
"352 78 OFFCURVE",
"287 78 CURVE SMOOTH",
"227 78 OFFCURVE",
"181 95 OFFCURVE",
"139 119 CURVE",
"104 60 LINE",
"162 23 OFFCURVE",
"212 0 OFFCURVE",
"297 0 CURVE SMOOTH"
);
},
{
closed = 1;
nodes = (
"46 0 LINE",
"46 78 LINE",
"-34 78 LINE",
"-34 16 LINE",
"-23 10 OFFCURVE",
"8 0 OFFCURVE",
"34 0 CURVE SMOOTH"
);
},
{
closed = 1;
nodes = (
"109 0 OFFCURVE",
"150 40 OFFCURVE",
"220 128 CURVE SMOOTH",
"413 369 LINE",
"413 494 LINE",
"171 189 LINE SMOOTH",
"107 108 OFFCURVE",
"82 78 OFFCURVE",
"36 78 CURVE",
"46 0 LINE"
);
}
);
width = 559;
}
);
leftMetricsKey = uni10D05.medi;
rightMetricsKey = uni10D05;
category = Letter;
},
{
glyphname = uni10D05.medi;
lastChange = "2019-08-04 20:47:24 +0000";
layers = (
{
layerId = UUID0;
paths = (
{
closed = 1;
nodes = (
"401 0 OFFCURVE",
"479 54 OFFCURVE",
"479 199 CURVE SMOOTH",
"479 596 LINE SMOOTH",
"479 677 OFFCURVE",
"426 714 OFFCURVE",
"357 714 CURVE SMOOTH",
"275 714 LINE SMOOTH",
"206 714 OFFCURVE",
"164 664 OFFCURVE",
"164 596 CURVE SMOOTH",
"164 565 LINE",
"253 565 LINE",
"253 664 LINE",
"223 636 LINE",
"390 636 LINE",
"390 199 LINE SMOOTH",
"390 110 OFFCURVE",
"352 78 OFFCURVE",
"287 78 CURVE SMOOTH",
"227 78 OFFCURVE",
"181 95 OFFCURVE",
"139 119 CURVE",
"104 60 LINE",
"162 23 OFFCURVE",
"212 0 OFFCURVE",
"297 0 CURVE SMOOTH"
);
},
{
closed = 1;
nodes = (
"46 0 LINE",
"46 78 LINE",
"-34 78 LINE",
"-34 16 LINE",
"-23 10 OFFCURVE",
"8 0 OFFCURVE",
"34 0 CURVE SMOOTH"
);
},
{
closed = 1;
nodes = (
"109 0 OFFCURVE",
"150 40 OFFCURVE",
"220 128 CURVE SMOOTH",
"413 369 LINE",
"413 494 LINE",
"171 189 LINE SMOOTH",
"107 108 OFFCURVE",
"82 78 OFFCURVE",
"36 78 CURVE",
"46 0 LINE"
);
},
{
closed = 1;
nodes = (
"628 0 LINE",
"628 78 LINE",
"618 78 LINE SMOOTH",
"556 78 OFFCURVE",
"501 99 OFFCURVE",
"465 155 CURVE",
"439 92 LINE",
"474 34 OFFCURVE",
"550 0 OFFCURVE",
"618 0 CURVE SMOOTH"
);
}
);
width = 594;
}
);
category = Letter;
},
{
glyphname = uni10D06.init;
lastChange = "2019-08-04 20:47:24 +0000";
layers = (
{
layerId = UUID0;
paths = (
{
closed = 1;
nodes = (
"401 0 OFFCURVE",
"479 54 OFFCURVE",
"479 199 CURVE SMOOTH",
"479 714 LINE",
"390 714 LINE",
"390 199 LINE SMOOTH",
"390 110 OFFCURVE",
"352 78 OFFCURVE",
"287 78 CURVE SMOOTH",
"227 78 OFFCURVE",
"181 95 OFFCURVE",
"139 119 CURVE",
"104 60 LINE",
"162 23 OFFCURVE",
"212 0 OFFCURVE",
"297 0 CURVE SMOOTH"
);
},
{
closed = 1;
nodes = (
"46 0 LINE",
"46 78 LINE",
"-34 78 LINE",
"-34 16 LINE",
"-23 10 OFFCURVE",
"8 0 OFFCURVE",
"34 0 CURVE SMOOTH"
);
},
{
closed = 1;
nodes = (
"109 0 OFFCURVE",
"150 40 OFFCURVE",
"220 128 CURVE SMOOTH",
"413 369 LINE",
"413 494 LINE",
"171 189 LINE SMOOTH",
"107 108 OFFCURVE",
"82 78 OFFCURVE",
"36 78 CURVE",
"46 0 LINE"
);
}
);
width = 559;
}
);
leftMetricsKey = uni10D06.medi;
rightMetricsKey = uni10D06;
category = Letter;
},
{
glyphname = uni10D06.medi;
lastChange = "2019-08-04 20:47:24 +0000";
layers = (
{
layerId = UUID0;
paths = (
{
closed = 1;
nodes = (
"401 0 OFFCURVE",
"479 54 OFFCURVE",
"479 199 CURVE SMOOTH",
"479 714 LINE",
"390 714 LINE",
"390 199 LINE SMOOTH",
"390 110 OFFCURVE",
"352 78 OFFCURVE",
"287 78 CURVE SMOOTH",
"227 78 OFFCURVE",
"181 95 OFFCURVE",
"139 119 CURVE",
"104 60 LINE",
"162 23 OFFCURVE",
"212 0 OFFCURVE",
"297 0 CURVE SMOOTH"
);
},
{
closed = 1;
nodes = (
"46 0 LINE",
"46 78 LINE",
"-34 78 LINE",
"-34 16 LINE",
"-23 10 OFFCURVE",
"8 0 OFFCURVE",
"34 0 CURVE SMOOTH"
);
},
{
closed = 1;
nodes = (
"109 0 OFFCURVE",
"150 40 OFFCURVE",
"220 128 CURVE SMOOTH",
"413 369 LINE",
"413 494 LINE",
"171 189 LINE SMOOTH",
"107 108 OFFCURVE",
"82 78 OFFCURVE",
"36 78 CURVE",
"46 0 LINE"
);
},
{
closed = 1;
nodes = (
"628 0 LINE",
"628 78 LINE",
"618 78 LINE SMOOTH",
"556 78 OFFCURVE",
"501 99 OFFCURVE",
"465 155 CURVE",
"439 92 LINE",
"474 34 OFFCURVE",
"550 0 OFFCURVE",
"618 0 CURVE SMOOTH"
);
}
);
width = 594;
}
);
category = Letter;
},
{
glyphname = uni10D07.medi;
lastChange = "2019-08-04 20:47:24 +0000";
layers = (
{
layerId = UUID0;
paths = (
{
closed = 1;
nodes = (
"567 -5 OFFCURVE",
"655 77 OFFCURVE",
"655 235 CURVE SMOOTH",
"655 432 OFFCURVE",
"548 536 OFFCURVE",
"428 536 CURVE SMOOTH",
"328 536 OFFCURVE",
"262 463 OFFCURVE",
"230 383 CURVE",
"302 350 LINE",
"328 412 OFFCURVE",
"368 459 OFFCURVE",
"428 459 CURVE SMOOTH",
"491 459 OFFCURVE",
"566 393 OFFCURVE",
"566 236 CURVE SMOOTH",
"566 131 OFFCURVE",
"522 73 OFFCURVE",
"438 73 CURVE SMOOTH",
"366 73 OFFCURVE",
"338 110 OFFCURVE",
"326 126 CURVE",
"259 67 LINE",
"296 29 OFFCURVE",
"349 -5 OFFCURVE",
"440 -5 CURVE SMOOTH"
);
},
{
closed = 1;
nodes = (
"46 0 LINE",
"46 78 LINE",
"-34 78 LINE",
"-34 16 LINE",
"-23 10 OFFCURVE",
"8 0 OFFCURVE",
"34 0 CURVE SMOOTH"
);
},
{
closed = 1;
nodes = (
"54 0 LINE SMOOTH",
"110 0 OFFCURVE",
"196 31 OFFCURVE",
"244 66 CURVE",
"164 107 LINE",
"132 89 OFFCURVE",
"78 78 OFFCURVE",
"43 78 CURVE",
"43 0 LINE"
);
},
{
closed = 1;
nodes = (
"327 55 OFFCURVE",
"383 131 OFFCURVE",
"383 226 CURVE SMOOTH",
"383 324 OFFCURVE",
"327 400 OFFCURVE",
"210 400 CURVE SMOOTH",
"100 400 OFFCURVE",
"39 324 OFFCURVE",
"39 228 CURVE SMOOTH",
"39 129 OFFCURVE",
"100 55 OFFCURVE",
"210 55 CURVE SMOOTH"
);
},
{
closed = 1;
nodes = (
"152 128 OFFCURVE",
"129 177 OFFCURVE",
"129 231 CURVE SMOOTH",
"129 278 OFFCURVE",
"153 327 OFFCURVE",
"211 327 CURVE SMOOTH",
"269 327 OFFCURVE",
"293 277 OFFCURVE",
"293 227 CURVE SMOOTH",
"293 180 OFFCURVE",
"270 128 OFFCURVE",
"211 128 CURVE SMOOTH"
);
},
{
closed = 1;
nodes = (
"738 0 LINE",
"738 78 LINE",
"728 78 LINE SMOOTH",
"666 78 OFFCURVE",
"611 99 OFFCURVE",
"575 155 CURVE",
"549 92 LINE",
"584 34 OFFCURVE",
"660 0 OFFCURVE",
"728 0 CURVE SMOOTH"
);
}
);
width = 704;
}
);
category = Letter;
},
{
glyphname = uni10D07.init;
lastChange = "2019-08-04 20:47:24 +0000";
layers = (
{
layerId = UUID0;
paths = (
{
closed = 1;
nodes = (
"567 -5 OFFCURVE",
"655 77 OFFCURVE",
"655 235 CURVE SMOOTH",
"655 432 OFFCURVE",
"548 536 OFFCURVE",
"428 536 CURVE SMOOTH",
"328 536 OFFCURVE",
"262 463 OFFCURVE",
"230 383 CURVE",
"302 350 LINE",
"328 412 OFFCURVE",
"368 459 OFFCURVE",
"428 459 CURVE SMOOTH",
"491 459 OFFCURVE",
"566 393 OFFCURVE",
"566 236 CURVE SMOOTH",
"566 131 OFFCURVE",
"522 73 OFFCURVE",
"438 73 CURVE SMOOTH",
"366 73 OFFCURVE",
"338 110 OFFCURVE",
"326 126 CURVE",
"259 67 LINE",
"296 29 OFFCURVE",
"349 -5 OFFCURVE",
"440 -5 CURVE SMOOTH"
);
},
{
closed = 1;
nodes = (
"46 0 LINE",
"46 78 LINE",
"-34 78 LINE",
"-34 16 LINE",
"-23 10 OFFCURVE",
"8 0 OFFCURVE",
"34 0 CURVE SMOOTH"
);
},
{
closed = 1;
nodes = (
"54 0 LINE SMOOTH",
"110 0 OFFCURVE",
"196 31 OFFCURVE",
"244 66 CURVE",
"164 107 LINE",
"132 89 OFFCURVE",
"78 78 OFFCURVE",
"43 78 CURVE",
"43 0 LINE"
);
},
{
closed = 1;
nodes = (
"327 55 OFFCURVE",
"383 131 OFFCURVE",
"383 226 CURVE SMOOTH",
"383 324 OFFCURVE",
"327 400 OFFCURVE",
"210 400 CURVE SMOOTH",
"100 400 OFFCURVE",
"39 324 OFFCURVE",
"39 228 CURVE SMOOTH",
"39 129 OFFCURVE",
"100 55 OFFCURVE",
"210 55 CURVE SMOOTH"
);
},
{
closed = 1;
nodes = (
"152 128 OFFCURVE",
"129 177 OFFCURVE",
"129 231 CURVE SMOOTH",
"129 278 OFFCURVE",
"153 327 OFFCURVE",
"211 327 CURVE SMOOTH",
"269 327 OFFCURVE",
"293 277 OFFCURVE",
"293 227 CURVE SMOOTH",
"293 180 OFFCURVE",
"270 128 OFFCURVE",
"211 128 CURVE SMOOTH"
);
}
);
width = 700;
}
);
leftMetricsKey = uni10D07.medi;
rightMetricsKey = uni10D07;
category = Letter;
},
{
glyphname = uni10D08.init;
lastChange = "2019-08-04 20:47:24 +0000";
layers = (
{
layerId = UUID0;
paths = (
{
closed = 1;
nodes = (
"63 0 LINE SMOOTH",
"275 0 OFFCURVE",
"369 90 OFFCURVE",
"369 239 CURVE SMOOTH",
"369 383 OFFCURVE",
"270 478 OFFCURVE",
"103 478 CURVE",
"111 437 LINE",
"349 615 LINE",
"349 714 LINE",
"41 483 LINE",
"41 400 LINE",
"83 400 LINE SMOOTH",
"214 400 OFFCURVE",
"280 341 OFFCURVE",
"280 239 CURVE SMOOTH",
"280 134 OFFCURVE",
"223 78 OFFCURVE",
"63 78 CURVE SMOOTH",
"41 78 LINE",
"41 0 LINE"
);
},
{
closed = 1;
nodes = (
"46 0 LINE",
"46 78 LINE",
"-34 78 LINE",
"-34 16 LINE",
"-23 10 OFFCURVE",
"8 0 OFFCURVE",
"34 0 CURVE SMOOTH"
);
}
);
width = 409;
}
);
leftMetricsKey = uni10D08.medi;
rightMetricsKey = uni10D08;
category = Letter;
},
{
glyphname = uni10D08.medi;
lastChange = "2019-08-04 20:47:24 +0000";
layers = (
{
layerId = UUID0;
paths = (
{
closed = 1;
nodes = (
"63 0 LINE SMOOTH",
"275 0 OFFCURVE",
"369 90 OFFCURVE",
"369 239 CURVE SMOOTH",
"369 383 OFFCURVE",
"270 478 OFFCURVE",
"103 478 CURVE",
"111 437 LINE",
"349 615 LINE",
"349 714 LINE",
"41 483 LINE",
"41 400 LINE",
"83 400 LINE SMOOTH",
"214 400 OFFCURVE",
"280 341 OFFCURVE",
"280 239 CURVE SMOOTH",
"280 134 OFFCURVE",
"223 78 OFFCURVE",
"63 78 CURVE SMOOTH",
"41 78 LINE",
"41 0 LINE"
);
},
{
closed = 1;
nodes = (
"46 0 LINE",
"46 78 LINE",
"-34 78 LINE",
"-34 16 LINE",
"-23 10 OFFCURVE",
"8 0 OFFCURVE",
"34 0 CURVE SMOOTH"
);
},
{
closed = 1;
nodes = (
"445 0 LINE",
"445 78 LINE",
"435 78 LINE SMOOTH",
"373 78 OFFCURVE",
"318 99 OFFCURVE",
"282 155 CURVE",
"256 92 LINE",
"291 34 OFFCURVE",
"367 0 OFFCURVE",
"435 0 CURVE SMOOTH"
);
}
);
width = 411;
}
);
category = Letter;
},
{
glyphname = uni10D09.medi;
lastChange = "2019-08-04 20:47:24 +0000";
layers = (
{
layerId = UUID0;
paths = (
{
closed = 1;
nodes = (
"56 0 LINE SMOOTH",
"247 0 OFFCURVE",
"357 140 OFFCURVE",
"357 332 CURVE SMOOTH",
"357 465 OFFCURVE",
"295 536 OFFCURVE",
"191 536 CURVE SMOOTH",
"100 536 OFFCURVE",
"45 472 OFFCURVE",
"45 395 CURVE SMOOTH",
"45 308 OFFCURVE",
"120 245 OFFCURVE",
"239 245 CURVE SMOOTH",
"284 245 LINE",
"284 323 LINE",
"250 323 LINE SMOOTH",
"171 323 OFFCURVE",
"134 356 OFFCURVE",
"134 395 CURVE SMOOTH",
"134 435 OFFCURVE",
"160 458 OFFCURVE",
"194 458 CURVE SMOOTH",
"234 458 OFFCURVE",
"268 428 OFFCURVE",
"268 332 CURVE SMOOTH",
"268 180 OFFCURVE",
"185 78 OFFCURVE",
"56 78 CURVE SMOOTH",
"42 78 LINE",
"42 0 LINE"
);
},
{
closed = 1;
nodes = (
"46 0 LINE",
"46 78 LINE",
"-34 78 LINE",
"-34 16 LINE",
"-23 10 OFFCURVE",
"8 0 OFFCURVE",
"34 0 CURVE SMOOTH"
);
},
{
closed = 1;
nodes = (
"449 0 LINE",
"449 78 LINE",
"439 78 LINE SMOOTH",
"377 78 OFFCURVE",
"322 99 OFFCURVE",
"286 155 CURVE",
"260 92 LINE",
"295 34 OFFCURVE",
"371 0 OFFCURVE",
"439 0 CURVE SMOOTH"
);
},
{
closed = 1;
nodes = (
"221 594 OFFCURVE",
"247 612 OFFCURVE",
"247 654 CURVE SMOOTH",
"247 696 OFFCURVE",
"221 714 OFFCURVE",
"188 714 CURVE SMOOTH",
"154 714 OFFCURVE",
"129 696 OFFCURVE",
"129 654 CURVE SMOOTH",
"129 612 OFFCURVE",
"154 594 OFFCURVE",
"188 594 CURVE SMOOTH"
);
}
);
width = 415;
}
);
category = Letter;
},
{
glyphname = uni10D09.init;
lastChange = "2018-12-11 14:19:31 +0000";
layers = (
{
components = (
{
name = uni10D02.init;
}
);
layerId = UUID0;
paths = (
{
closed = 1;
nodes = (
"221 594 OFFCURVE",
"247 612 OFFCURVE",
"247 654 CURVE SMOOTH",
"247 696 OFFCURVE",
"221 714 OFFCURVE",
"188 714 CURVE SMOOTH",
"154 714 OFFCURVE",
"129 696 OFFCURVE",
"129 654 CURVE SMOOTH",
"129 612 OFFCURVE",
"154 594 OFFCURVE",
"188 594 CURVE SMOOTH"
);
}
);
width = 402;
}
);
leftMetricsKey = uni10D09.medi;
rightMetricsKey = uni10D09;
category = Letter;
},
{
glyphname = uni10D0A.init;
lastChange = "2019-08-04 20:47:24 +0000";
layers = (
{
layerId = UUID0;
paths = (
{
closed = 1;
nodes = (
"69 0 LINE SMOOTH",
"284 0 OFFCURVE",
"382 96 OFFCURVE",
"382 246 CURVE SMOOTH",
"382 368 OFFCURVE",
"304 456 OFFCURVE",
"181 456 CURVE SMOOTH",
"131 456 OFFCURVE",
"101 445 OFFCURVE",
"75 435 CURVE",
"75 359 LINE",
"104 370 OFFCURVE",
"133 378 OFFCURVE",
"174 378 CURVE SMOOTH",
"252 378 OFFCURVE",
"293 324 OFFCURVE",
"293 246 CURVE SMOOTH",
"293 140 OFFCURVE",
"228 78 OFFCURVE",
"69 78 CURVE SMOOTH",
"37 78 LINE",
"37 0 LINE"
);
},
{
closed = 1;
nodes = (
"46 0 LINE",
"46 78 LINE",
"-34 78 LINE",
"-34 16 LINE",
"-23 10 OFFCURVE",
"8 0 OFFCURVE",
"34 0 CURVE SMOOTH"
);
}
);
width = 427;
}
);
leftMetricsKey = uni10D0A.medi;
rightMetricsKey = uni10D0A;
category = Letter;
},
{
glyphname = uni10D0A.medi;
lastChange = "2019-08-04 20:47:24 +0000";
layers = (
{
layerId = UUID0;
paths = (
{
closed = 1;
nodes = (
"69 0 LINE SMOOTH",
"284 0 OFFCURVE",
"382 96 OFFCURVE",
"382 246 CURVE SMOOTH",
"382 368 OFFCURVE",
"304 456 OFFCURVE",
"181 456 CURVE SMOOTH",
"131 456 OFFCURVE",
"101 445 OFFCURVE",
"75 435 CURVE",
"75 359 LINE",
"104 370 OFFCURVE",
"133 378 OFFCURVE",
"174 378 CURVE SMOOTH",
"252 378 OFFCURVE",
"293 324 OFFCURVE",
"293 246 CURVE SMOOTH",
"293 140 OFFCURVE",
"228 78 OFFCURVE",
"69 78 CURVE SMOOTH",
"37 78 LINE",
"37 0 LINE"
);
},
{
closed = 1;
nodes = (
"46 0 LINE",
"46 78 LINE",
"-34 78 LINE",
"-34 16 LINE",
"-23 10 OFFCURVE",
"8 0 OFFCURVE",
"34 0 CURVE SMOOTH"
);
},
{
closed = 1;
nodes = (
"483 0 LINE",
"483 78 LINE",
"473 78 LINE SMOOTH",
"411 78 OFFCURVE",
"356 99 OFFCURVE",
"320 155 CURVE",
"294 92 LINE",
"329 34 OFFCURVE",
"405 0 OFFCURVE",
"473 0 CURVE SMOOTH"
);
}
);
width = 449;
}
);
category = Letter;
},
{
glyphname = uni10D0B.init;
lastChange = "2019-08-04 20:47:24 +0000";
layers = (
{
layerId = UUID0;
paths = (
{
closed = 1;
nodes = (
"421 0 LINE SMOOTH",
"582 0 OFFCURVE",
"687 76 OFFCURVE",
"687 214 CURVE SMOOTH",
"687 326 OFFCURVE",
"624 400 OFFCURVE",
"504 400 CURVE SMOOTH",
"381 400 OFFCURVE",
"260 286 OFFCURVE",
"181 196 CURVE",
"181 87 LINE",
"278 193 OFFCURVE",
"399 322 OFFCURVE",
"504 322 CURVE SMOOTH",
"567 322 OFFCURVE",
"598 281 OFFCURVE",
"598 214 CURVE SMOOTH",
"598 124 OFFCURVE",
"535 78 OFFCURVE",
"421 78 CURVE SMOOTH",
"42 78 LINE",
"42 0 LINE"
);
},
{
closed = 1;
nodes = (
"46 0 LINE",
"46 78 LINE",
"-34 78 LINE",
"-34 16 LINE",
"-23 10 OFFCURVE",
"8 0 OFFCURVE",
"34 0 CURVE SMOOTH"
);
},
{
closed = 1;
nodes = (
"190 61 LINE",
"190 714 LINE",
"101 714 LINE",
"101 61 LINE"
);
},
{
closed = 1;
nodes = (
"412 58 LINE",
"427 83 OFFCURVE",
"434 113 OFFCURVE",
"434 147 CURVE SMOOTH",
"434 211 OFFCURVE",
"396 267 OFFCURVE",
"346 291 CURVE",
"290 240 LINE",
"333 222 OFFCURVE",
"354 185 OFFCURVE",
"354 141 CURVE SMOOTH",
"354 111 OFFCURVE",
"343 82 OFFCURVE",
"323 58 CURVE"
);
}
);
width = 732;
}
);
leftMetricsKey = uni10D0B.medi;
rightMetricsKey = uni10D0B;
category = Letter;
},
{
glyphname = uni10D0B.medi;
lastChange = "2019-08-04 20:47:24 +0000";
layers = (
{
layerId = UUID0;
paths = (
{
closed = 1;
nodes = (
"421 0 LINE SMOOTH",
"582 0 OFFCURVE",
"687 76 OFFCURVE",
"687 214 CURVE SMOOTH",
"687 326 OFFCURVE",
"624 400 OFFCURVE",
"504 400 CURVE SMOOTH",
"381 400 OFFCURVE",
"260 286 OFFCURVE",
"181 196 CURVE",
"181 87 LINE",
"278 193 OFFCURVE",
"399 322 OFFCURVE",
"504 322 CURVE SMOOTH",
"567 322 OFFCURVE",
"598 281 OFFCURVE",
"598 214 CURVE SMOOTH",
"598 124 OFFCURVE",
"535 78 OFFCURVE",
"421 78 CURVE SMOOTH",
"42 78 LINE",
"42 0 LINE"
);
},
{
closed = 1;
nodes = (
"46 0 LINE",
"46 78 LINE",
"-34 78 LINE",
"-34 16 LINE",
"-23 10 OFFCURVE",
"8 0 OFFCURVE",
"34 0 CURVE SMOOTH"
);
},
{
closed = 1;
nodes = (
"190 61 LINE",
"190 714 LINE",
"101 714 LINE",
"101 61 LINE"
);
},
{
closed = 1;
nodes = (
"412 58 LINE",
"427 83 OFFCURVE",
"434 113 OFFCURVE",
"434 147 CURVE SMOOTH",
"434 211 OFFCURVE",
"396 267 OFFCURVE",
"346 291 CURVE",
"290 240 LINE",
"333 222 OFFCURVE",
"354 185 OFFCURVE",
"354 141 CURVE SMOOTH",
"354 111 OFFCURVE",
"343 82 OFFCURVE",
"323 58 CURVE"
);
},
{
closed = 1;
nodes = (
"752 0 LINE",
"752 78 LINE",
"742 78 LINE SMOOTH",
"680 78 OFFCURVE",
"625 99 OFFCURVE",
"589 155 CURVE",
"563 92 LINE",
"598 34 OFFCURVE",
"674 0 OFFCURVE",
"742 0 CURVE SMOOTH"
);
}
);
width = 718;
}
);
category = Letter;
},
{
glyphname = uni10D0C.init;
lastChange = "2019-08-04 20:47:24 +0000";
layers = (
{
layerId = UUID0;
paths = (
{
closed = 1;
nodes = (
"59 0 LINE SMOOTH",
"177 0 OFFCURVE",
"246 77 OFFCURVE",
"246 199 CURVE SMOOTH",
"246 544 LINE SMOOTH",
"246 620 OFFCURVE",
"278 636 OFFCURVE",
"309 636 CURVE SMOOTH",
"343 636 OFFCURVE",
"370 609 OFFCURVE",
"370 569 CURVE SMOOTH",
"370 527 OFFCURVE",
"337 501 OFFCURVE",
"278 501 CURVE SMOOTH",
"50 501 LINE",
"50 423 LINE",
"281 423 LINE SMOOTH",
"388 423 OFFCURVE",
"459 482 OFFCURVE",
"459 569 CURVE SMOOTH",
"459 650 OFFCURVE",
"400 714 OFFCURVE",
"309 714 CURVE SMOOTH",
"214 714 OFFCURVE",
"157 645 OFFCURVE",
"157 544 CURVE SMOOTH",
"157 199 LINE SMOOTH",
"157 114 OFFCURVE",
"123 78 OFFCURVE",
"59 78 CURVE SMOOTH",
"42 78 LINE",
"42 0 LINE"
);
},
{
closed = 1;
nodes = (
"46 0 LINE",
"46 78 LINE",
"-34 78 LINE",
"-34 16 LINE",
"-23 10 OFFCURVE",
"8 0 OFFCURVE",
"34 0 CURVE SMOOTH"
);
}
);
width = 469;
}
);
leftMetricsKey = uni10D0C.medi;
rightMetricsKey = uni10D0C;
category = Letter;
},
{
glyphname = uni10D0C.medi;
lastChange = "2019-08-04 20:47:24 +0000";
layers = (
{
layerId = UUID0;
paths = (
{
closed = 1;
nodes = (
"59 0 LINE SMOOTH",
"177 0 OFFCURVE",
"246 77 OFFCURVE",
"246 199 CURVE SMOOTH",
"246 544 LINE SMOOTH",
"246 620 OFFCURVE",
"278 636 OFFCURVE",
"309 636 CURVE SMOOTH",
"343 636 OFFCURVE",
"370 609 OFFCURVE",
"370 569 CURVE SMOOTH",
"370 527 OFFCURVE",
"337 501 OFFCURVE",
"278 501 CURVE SMOOTH",
"50 501 LINE",
"50 423 LINE",
"281 423 LINE SMOOTH",
"388 423 OFFCURVE",
"459 482 OFFCURVE",
"459 569 CURVE SMOOTH",
"459 650 OFFCURVE",
"400 714 OFFCURVE",
"309 714 CURVE SMOOTH",
"214 714 OFFCURVE",
"157 645 OFFCURVE",
"157 544 CURVE SMOOTH",
"157 199 LINE SMOOTH",
"157 114 OFFCURVE",
"123 78 OFFCURVE",
"59 78 CURVE SMOOTH",
"42 78 LINE",
"42 0 LINE"
);
},
{
closed = 1;
nodes = (
"46 0 LINE",
"46 78 LINE",
"-34 78 LINE",
"-34 16 LINE",
"-23 10 OFFCURVE",
"8 0 OFFCURVE",
"34 0 CURVE SMOOTH"
);
},
{
closed = 1;
nodes = (
"485 0 LINE",
"485 78 LINE",
"395 78 LINE SMOOTH",
"333 78 OFFCURVE",
"278 99 OFFCURVE",
"242 155 CURVE",
"216 92 LINE",
"251 34 OFFCURVE",
"327 0 OFFCURVE",
"395 0 CURVE SMOOTH"
);
}
);
width = 451;
}
);
category = Letter;
},
{
glyphname = uni10D0D.init;
lastChange = "2019-08-04 20:47:24 +0000";
layers = (
{
layerId = UUID0;
paths = (
{
closed = 1;
nodes = (
"220 47 LINE",
"220 514 LINE SMOOTH",
"220 620 OFFCURVE",
"257 636 OFFCURVE",
"293 636 CURVE SMOOTH",
"327 636 OFFCURVE",
"354 609 OFFCURVE",
"354 575 CURVE SMOOTH",
"354 537 OFFCURVE",
"317 511 OFFCURVE",
"252 511 CURVE SMOOTH",
"24 511 LINE",
"24 433 LINE",
"255 433 LINE SMOOTH",
"368 433 OFFCURVE",
"443 482 OFFCURVE",
"443 575 CURVE SMOOTH",
"443 650 OFFCURVE",
"381 714 OFFCURVE",
"290 714 CURVE SMOOTH",
"189 714 OFFCURVE",
"131 645 OFFCURVE",
"131 514 CURVE SMOOTH",
"131 47 LINE"
);
},
{
closed = 1;
nodes = (
"46 0 LINE",
"46 78 LINE",
"-34 78 LINE",
"-34 16 LINE",
"-23 10 OFFCURVE",
"8 0 OFFCURVE",
"34 0 CURVE SMOOTH"
);
},
{
closed = 1;
nodes = (
"421 0 LINE SMOOTH",
"582 0 OFFCURVE",
"687 76 OFFCURVE",
"687 214 CURVE SMOOTH",
"687 326 OFFCURVE",
"624 400 OFFCURVE",
"504 400 CURVE SMOOTH",
"381 400 OFFCURVE",
"260 286 OFFCURVE",
"181 196 CURVE",
"181 87 LINE",
"278 193 OFFCURVE",
"399 322 OFFCURVE",
"504 322 CURVE SMOOTH",
"567 322 OFFCURVE",
"598 281 OFFCURVE",
"598 214 CURVE SMOOTH",
"598 124 OFFCURVE",
"535 78 OFFCURVE",
"421 78 CURVE SMOOTH",
"42 78 LINE",
"42 0 LINE"
);
}
);
width = 697;
}
);
leftMetricsKey = uni10D0D.medi;
rightMetricsKey = uni10D0D;
category = Letter;
},
{
glyphname = uni10D0D.medi;
lastChange = "2019-08-04 20:47:24 +0000";
layers = (
{
layerId = UUID0;
paths = (
{
closed = 1;
nodes = (
"220 47 LINE",
"220 514 LINE SMOOTH",
"220 620 OFFCURVE",
"257 636 OFFCURVE",
"293 636 CURVE SMOOTH",
"327 636 OFFCURVE",
"354 609 OFFCURVE",
"354 575 CURVE SMOOTH",
"354 537 OFFCURVE",
"317 511 OFFCURVE",
"252 511 CURVE SMOOTH",
"24 511 LINE",
"24 433 LINE",
"255 433 LINE SMOOTH",
"368 433 OFFCURVE",
"443 482 OFFCURVE",
"443 575 CURVE SMOOTH",
"443 650 OFFCURVE",
"381 714 OFFCURVE",
"290 714 CURVE SMOOTH",
"189 714 OFFCURVE",
"131 645 OFFCURVE",
"131 514 CURVE SMOOTH",
"131 47 LINE"
);
},
{
closed = 1;
nodes = (
"46 0 LINE",
"46 78 LINE",
"-34 78 LINE",
"-34 16 LINE",
"-23 10 OFFCURVE",
"8 0 OFFCURVE",
"34 0 CURVE SMOOTH"
);
},
{
closed = 1;
nodes = (
"421 0 LINE SMOOTH",
"582 0 OFFCURVE",
"687 76 OFFCURVE",
"687 214 CURVE SMOOTH",
"687 326 OFFCURVE",
"624 400 OFFCURVE",
"504 400 CURVE SMOOTH",
"381 400 OFFCURVE",
"260 286 OFFCURVE",
"181 196 CURVE",
"181 87 LINE",
"278 193 OFFCURVE",
"399 322 OFFCURVE",
"504 322 CURVE SMOOTH",
"567 322 OFFCURVE",
"598 281 OFFCURVE",
"598 214 CURVE SMOOTH",
"598 124 OFFCURVE",
"535 78 OFFCURVE",
"421 78 CURVE SMOOTH",
"42 78 LINE",
"42 0 LINE"
);
},
{
closed = 1;
nodes = (
"752 0 LINE",
"752 78 LINE",
"742 78 LINE SMOOTH",
"680 78 OFFCURVE",
"625 99 OFFCURVE",
"589 155 CURVE",
"563 92 LINE",
"598 34 OFFCURVE",
"674 0 OFFCURVE",
"742 0 CURVE SMOOTH"
);
}
);
width = 718;
}
);
category = Letter;
},
{
glyphname = uni10D0E.init;
lastChange = "2019-08-04 20:47:24 +0000";
layers = (
{
layerId = UUID0;
paths = (
{
closed = 1;
nodes = (
"95 0 LINE SMOOTH",
"239 0 OFFCURVE",
"379 59 OFFCURVE",
"379 251 CURVE SMOOTH",
"379 542 LINE SMOOTH",
"379 656 OFFCURVE",
"325 714 OFFCURVE",
"241 714 CURVE SMOOTH",
"157 714 OFFCURVE",
"101 656 OFFCURVE",
"101 542 CURVE SMOOTH",
"101 251 LINE SMOOTH",
"101 53 OFFCURVE",
"237 0 OFFCURVE",
"340 0 CURVE SMOOTH",
"469 0 LINE",
"469 78 LINE",
"336 78 LINE SMOOTH",
"274 78 OFFCURVE",
"180 111 OFFCURVE",
"180 251 CURVE SMOOTH",
"180 542 LINE SMOOTH",
"180 614 OFFCURVE",
"207 636 OFFCURVE",
"237 636 CURVE SMOOTH",
"267 636 OFFCURVE",
"290 614 OFFCURVE",
"290 542 CURVE SMOOTH",
"290 251 LINE SMOOTH",
"290 111 OFFCURVE",
"195 78 OFFCURVE",
"99 78 CURVE SMOOTH",
"40 78 LINE",
"40 0 LINE"
);
},
{
closed = 1;
nodes = (
"46 0 LINE",
"46 78 LINE",
"-34 78 LINE",
"-34 16 LINE",
"-23 10 OFFCURVE",
"8 0 OFFCURVE",
"34 0 CURVE SMOOTH"
);
}
);
width = 479;
}
);
rightMetricsKey = uni10D0E;
category = Letter;
},
{
glyphname = uni10D0F.init;
lastChange = "2019-08-04 20:47:24 +0000";
layers = (
{
layerId = UUID0;
paths = (
{
closed = 1;
nodes = (
"115 0 LINE SMOOTH",
"291 0 OFFCURVE",
"397 120 OFFCURVE",
"397 286 CURVE SMOOTH",
"397 447 OFFCURVE",
"319 536 OFFCURVE",
"188 536 CURVE SMOOTH",
"78 536 OFFCURVE",
"10 463 OFFCURVE",
"10 384 CURVE SMOOTH",
"10 293 OFFCURVE",
"75 245 OFFCURVE",
"158 245 CURVE SMOOTH",
"189 245 LINE",
"189 323 LINE",
"159 323 LINE SMOOTH",
"126 323 OFFCURVE",
"99 342 OFFCURVE",
"99 384 CURVE SMOOTH",
"99 428 OFFCURVE",
"134 458 OFFCURVE",
"188 458 CURVE SMOOTH",
"264 458 OFFCURVE",
"308 401 OFFCURVE",
"308 286 CURVE SMOOTH",
"308 160 OFFCURVE",
"233 78 OFFCURVE",
"115 78 CURVE SMOOTH",
"43 78 LINE",
"43 0 LINE"
);
},
{
closed = 1;
nodes = (
"46 0 LINE",
"46 78 LINE",
"-34 78 LINE",
"-34 16 LINE",
"-23 10 OFFCURVE",
"8 0 OFFCURVE",
"34 0 CURVE SMOOTH"
);
}
);
width = 442;
}
);
leftMetricsKey = uni10D0F.medi;
rightMetricsKey = uni10D0F;
category = Letter;
},
{
glyphname = uni10D0F.medi;
lastChange = "2019-08-04 20:47:24 +0000";
layers = (
{
layerId = UUID0;
paths = (
{
closed = 1;
nodes = (
"115 0 LINE SMOOTH",
"291 0 OFFCURVE",
"397 120 OFFCURVE",
"397 286 CURVE SMOOTH",
"397 447 OFFCURVE",
"319 536 OFFCURVE",
"188 536 CURVE SMOOTH",
"78 536 OFFCURVE",
"10 463 OFFCURVE",
"10 384 CURVE SMOOTH",
"10 293 OFFCURVE",
"75 245 OFFCURVE",
"158 245 CURVE SMOOTH",
"189 245 LINE",
"189 323 LINE",
"159 323 LINE SMOOTH",
"126 323 OFFCURVE",
"99 342 OFFCURVE",
"99 384 CURVE SMOOTH",
"99 428 OFFCURVE",
"134 458 OFFCURVE",
"188 458 CURVE SMOOTH",
"264 458 OFFCURVE",
"308 401 OFFCURVE",
"308 286 CURVE SMOOTH",
"308 160 OFFCURVE",
"233 78 OFFCURVE",
"115 78 CURVE SMOOTH",
"43 78 LINE",
"43 0 LINE"
);
},
{
closed = 1;
nodes = (
"46 0 LINE",
"46 78 LINE",
"-34 78 LINE",
"-34 16 LINE",
"-23 10 OFFCURVE",
"8 0 OFFCURVE",
"34 0 CURVE SMOOTH"
);
},
{
closed = 1;
nodes = (
"496 0 LINE",
"496 78 LINE",
"486 78 LINE SMOOTH",
"424 78 OFFCURVE",
"369 99 OFFCURVE",
"333 155 CURVE",
"307 92 LINE",
"342 34 OFFCURVE",
"418 0 OFFCURVE",
"486 0 CURVE SMOOTH"
);
}
);
width = 462;
}
);
category = Letter;
},
{
glyphname = uni10D10.init;
lastChange = "2019-08-04 20:47:24 +0000";
layers = (
{
layerId = UUID0;
paths = (
{
closed = 1;
nodes = (
"49 0 LINE SMOOTH",
"140 0 OFFCURVE",
"203 33 OFFCURVE",
"239 97 CURVE",
"212 96 LINE",
"245 38 OFFCURVE",
"316 0 OFFCURVE",
"402 0 CURVE SMOOTH",
"571 0 OFFCURVE",
"634 116 OFFCURVE",
"634 279 CURVE SMOOTH",
"634 447 OFFCURVE",
"546 536 OFFCURVE",
"415 536 CURVE SMOOTH",
"305 536 OFFCURVE",
"237 463 OFFCURVE",
"237 384 CURVE SMOOTH",
"237 293 OFFCURVE",
"302 245 OFFCURVE",
"385 245 CURVE SMOOTH",
"416 245 LINE",
"416 323 LINE",
"386 323 LINE SMOOTH",
"353 323 OFFCURVE",
"326 342 OFFCURVE",
"326 384 CURVE SMOOTH",
"326 428 OFFCURVE",
"361 458 OFFCURVE",
"415 458 CURVE SMOOTH",
"491 458 OFFCURVE",
"545 401 OFFCURVE",
"545 279 CURVE SMOOTH",
"545 160 OFFCURVE",
"506 78 OFFCURVE",
"402 78 CURVE SMOOTH",
"332 78 OFFCURVE",
"269 130 OFFCURVE",
"269 209 CURVE",
"180 209 LINE",
"180 130 OFFCURVE",
"140 78 OFFCURVE",
"40 78 CURVE",
"40 0 LINE"
);
},
{
closed = 1;
nodes = (
"46 0 LINE",
"46 78 LINE",
"-34 78 LINE",
"-34 16 LINE",
"-23 10 OFFCURVE",
"8 0 OFFCURVE",
"34 0 CURVE SMOOTH"
);
}
);
width = 679;
}
);
leftMetricsKey = uni10D10.medi;
rightMetricsKey = uni10D10;
category = Letter;
},
{
glyphname = uni10D10.medi;
lastChange = "2019-08-04 20:47:24 +0000";
layers = (
{
layerId = UUID0;
paths = (
{
closed = 1;
nodes = (
"49 0 LINE SMOOTH",
"140 0 OFFCURVE",
"203 33 OFFCURVE",
"239 97 CURVE",
"212 96 LINE",
"245 38 OFFCURVE",
"316 0 OFFCURVE",
"402 0 CURVE SMOOTH",
"571 0 OFFCURVE",
"634 116 OFFCURVE",
"634 279 CURVE SMOOTH",
"634 447 OFFCURVE",
"546 536 OFFCURVE",
"415 536 CURVE SMOOTH",
"305 536 OFFCURVE",
"237 463 OFFCURVE",
"237 384 CURVE SMOOTH",
"237 293 OFFCURVE",
"302 245 OFFCURVE",
"385 245 CURVE SMOOTH",
"416 245 LINE",
"416 323 LINE",
"386 323 LINE SMOOTH",
"353 323 OFFCURVE",
"326 342 OFFCURVE",
"326 384 CURVE SMOOTH",
"326 428 OFFCURVE",
"361 458 OFFCURVE",
"415 458 CURVE SMOOTH",
"491 458 OFFCURVE",
"545 401 OFFCURVE",
"545 279 CURVE SMOOTH",
"545 160 OFFCURVE",
"506 78 OFFCURVE",
"402 78 CURVE SMOOTH",
"332 78 OFFCURVE",
"269 130 OFFCURVE",
"269 209 CURVE",
"180 209 LINE",
"180 130 OFFCURVE",
"140 78 OFFCURVE",
"40 78 CURVE",
"40 0 LINE"
);
},
{
closed = 1;
nodes = (
"46 0 LINE",
"46 78 LINE",
"-34 78 LINE",
"-34 16 LINE",
"-23 10 OFFCURVE",
"8 0 OFFCURVE",
"34 0 CURVE SMOOTH"
);
},
{
closed = 1;
nodes = (
"688 0 LINE",
"688 78 LINE",
"678 78 LINE SMOOTH",
"616 78 OFFCURVE",
"561 99 OFFCURVE",
"525 155 CURVE",
"499 92 LINE",
"534 34 OFFCURVE",
"610 0 OFFCURVE",
"678 0 CURVE SMOOTH"
);
}
);
width = 654;
}
);
category = Letter;
},
{
glyphname = uni10D11.init;
lastChange = "2019-08-04 20:47:24 +0000";
layers = (
{
layerId = UUID0;
paths = (
{
closed = 1;
nodes = (
"182 0 OFFCURVE",
"238 67 OFFCURVE",
"238 238 CURVE SMOOTH",
"238 542 LINE SMOOTH",
"238 614 OFFCURVE",
"259 636 OFFCURVE",
"288 636 CURVE SMOOTH",
"315 636 OFFCURVE",
"338 620 OFFCURVE",
"338 542 CURVE SMOOTH",
"338 205 LINE",
"427 265 LINE",
"427 542 LINE SMOOTH",
"427 662 OFFCURVE",
"377 714 OFFCURVE",
"293 714 CURVE SMOOTH",
"209 714 OFFCURVE",
"159 662 OFFCURVE",
"159 542 CURVE SMOOTH",
"159 238 LINE SMOOTH",
"159 116 OFFCURVE",
"130 78 OFFCURVE",
"46 78 CURVE",
"46 0 LINE"
);
},
{
closed = 1;
nodes = (
"46 0 LINE",
"46 78 LINE",
"-34 78 LINE",
"-34 16 LINE",
"-23 10 OFFCURVE",
"8 0 OFFCURVE",
"34 0 CURVE SMOOTH"
);
},
{
closed = 1;
nodes = (
"471 0 LINE SMOOTH",
"632 0 OFFCURVE",
"737 76 OFFCURVE",
"737 217 CURVE SMOOTH",
"737 326 OFFCURVE",
"674 400 OFFCURVE",
"569 400 CURVE SMOOTH",
"488 400 OFFCURVE",
"431 342 OFFCURVE",
"382 287 CURVE SMOOTH",
"345 246 OFFCURVE",
"279 181 OFFCURVE",
"231 181 CURVE",
"211 105 LINE",
"304 108 OFFCURVE",
"370 161 OFFCURVE",
"452 245 CURVE SMOOTH",
"501 296 OFFCURVE",
"526 322 OFFCURVE",
"569 322 CURVE SMOOTH",
"617 322 OFFCURVE",
"648 281 OFFCURVE",
"648 217 CURVE SMOOTH",
"648 124 OFFCURVE",
"585 78 OFFCURVE",
"461 78 CURVE SMOOTH",
"439 78 LINE SMOOTH",
"333 78 OFFCURVE",
"247 101 OFFCURVE",
"218 119 CURVE",
"183 60 LINE",
"250 23 OFFCURVE",
"338 0 OFFCURVE",
"443 0 CURVE SMOOTH"
);
}
);
width = 782;
}
);
leftMetricsKey = uni10D11.medi;
rightMetricsKey = uni10D11;
category = Letter;
},
{
glyphname = uni10D11.medi;
lastChange = "2019-08-04 20:47:24 +0000";
layers = (
{
layerId = UUID0;
paths = (
{
closed = 1;
nodes = (
"182 0 OFFCURVE",
"238 67 OFFCURVE",
"238 238 CURVE SMOOTH",
"238 542 LINE SMOOTH",
"238 614 OFFCURVE",
"259 636 OFFCURVE",
"288 636 CURVE SMOOTH",
"315 636 OFFCURVE",
"338 620 OFFCURVE",
"338 542 CURVE SMOOTH",
"338 205 LINE",
"427 265 LINE",
"427 542 LINE SMOOTH",
"427 662 OFFCURVE",
"377 714 OFFCURVE",
"293 714 CURVE SMOOTH",
"209 714 OFFCURVE",
"159 662 OFFCURVE",
"159 542 CURVE SMOOTH",
"159 238 LINE SMOOTH",
"159 116 OFFCURVE",
"130 78 OFFCURVE",
"46 78 CURVE",
"46 0 LINE"
);
},
{
closed = 1;
nodes = (
"46 0 LINE",
"46 78 LINE",
"-34 78 LINE",
"-34 16 LINE",
"-23 10 OFFCURVE",
"8 0 OFFCURVE",
"34 0 CURVE SMOOTH"
);
},
{
closed = 1;
nodes = (
"471 0 LINE SMOOTH",
"632 0 OFFCURVE",
"737 76 OFFCURVE",
"737 217 CURVE SMOOTH",
"737 326 OFFCURVE",
"674 400 OFFCURVE",
"569 400 CURVE SMOOTH",
"488 400 OFFCURVE",
"431 342 OFFCURVE",
"382 287 CURVE SMOOTH",
"345 246 OFFCURVE",
"279 181 OFFCURVE",
"231 181 CURVE",
"211 105 LINE",
"304 108 OFFCURVE",
"370 161 OFFCURVE",
"452 245 CURVE SMOOTH",
"501 296 OFFCURVE",
"526 322 OFFCURVE",
"569 322 CURVE SMOOTH",
"617 322 OFFCURVE",
"648 281 OFFCURVE",
"648 217 CURVE SMOOTH",
"648 124 OFFCURVE",
"585 78 OFFCURVE",
"461 78 CURVE SMOOTH",
"439 78 LINE SMOOTH",
"333 78 OFFCURVE",
"247 101 OFFCURVE",
"218 119 CURVE",
"183 60 LINE",
"250 23 OFFCURVE",
"338 0 OFFCURVE",
"443 0 CURVE SMOOTH"
);
},
{
closed = 1;
nodes = (
"815 0 LINE",
"815 78 LINE",
"805 78 LINE SMOOTH",
"743 78 OFFCURVE",
"688 99 OFFCURVE",
"652 155 CURVE",
"626 92 LINE",
"661 34 OFFCURVE",
"737 0 OFFCURVE",
"805 0 CURVE SMOOTH"
);
}
);
width = 781;
}
);
category = Letter;
},
{
glyphname = uni10D12.init;
lastChange = "2019-08-04 20:47:24 +0000";
layers = (
{
layerId = UUID0;
paths = (
{
closed = 1;
nodes = (
"507 0 LINE",
"507 78 LINE",
"404 78 LINE SMOOTH",
"274 78 OFFCURVE",
"165 160 OFFCURVE",
"165 286 CURVE SMOOTH",
"165 401 OFFCURVE",
"209 458 OFFCURVE",
"285 458 CURVE SMOOTH",
"339 458 OFFCURVE",
"374 428 OFFCURVE",
"374 384 CURVE SMOOTH",
"374 342 OFFCURVE",
"347 323 OFFCURVE",
"314 323 CURVE SMOOTH",
"284 323 LINE",
"284 245 LINE",
"315 245 LINE SMOOTH",
"398 245 OFFCURVE",
"463 293 OFFCURVE",
"463 384 CURVE SMOOTH",
"463 463 OFFCURVE",
"395 536 OFFCURVE",
"285 536 CURVE SMOOTH",
"154 536 OFFCURVE",
"76 447 OFFCURVE",
"76 286 CURVE SMOOTH",
"76 116 OFFCURVE",
"209 0 OFFCURVE",
"404 0 CURVE SMOOTH"
);
},
{
closed = 1;
nodes = (
"46 0 LINE",
"46 78 LINE",
"-34 78 LINE",
"-34 16 LINE",
"-23 10 OFFCURVE",
"8 0 OFFCURVE",
"34 0 CURVE SMOOTH"
);
},
{
closed = 1;
nodes = (
"49 0 LINE SMOOTH",
"140 0 OFFCURVE",
"203 33 OFFCURVE",
"239 97 CURVE",
"159 128 LINE",
"138 97 OFFCURVE",
"100 78 OFFCURVE",
"40 78 CURVE",
"40 0 LINE"
);
}
);
width = 537;
}
);
leftMetricsKey = uni10D12.medi;
rightMetricsKey = uni10D12;
category = Letter;
},
{
glyphname = uni10D13.init;
lastChange = "2019-08-04 20:47:24 +0000";
layers = (
{
layerId = UUID0;
paths = (
{
closed = 1;
nodes = (
"63 0 LINE SMOOTH",
"219 0 OFFCURVE",
"309 95 OFFCURVE",
"309 289 CURVE SMOOTH",
"309 714 LINE",
"220 714 LINE",
"220 289 LINE SMOOTH",
"220 137 OFFCURVE",
"160 78 OFFCURVE",
"63 78 CURVE SMOOTH",
"42 78 LINE",
"42 0 LINE"
);
},
{
closed = 1;
nodes = (
"46 0 LINE",
"46 78 LINE",
"-34 78 LINE",
"-34 16 LINE",
"-23 10 OFFCURVE",
"8 0 OFFCURVE",
"34 0 CURVE SMOOTH"
);
}
);
width = 389;
}
);
leftMetricsKey = uni10D13.medi;
rightMetricsKey = uni10D13;
category = Letter;
},
{
glyphname = uni10D13.medi;
lastChange = "2019-08-04 20:47:24 +0000";
layers = (
{
layerId = UUID0;
paths = (
{
closed = 1;
nodes = (
"49 0 LINE SMOOTH",
"186 0 OFFCURVE",
"259 82 OFFCURVE",
"259 242 CURVE SMOOTH",
"259 714 LINE",
"170 714 LINE",
"170 247 LINE SMOOTH",
"170 130 OFFCURVE",
"133 78 OFFCURVE",
"39 78 CURVE",
"39 0 LINE"
);
},
{
closed = 1;
nodes = (
"46 0 LINE",
"46 78 LINE",
"-34 78 LINE",
"-34 16 LINE",
"-23 10 OFFCURVE",
"8 0 OFFCURVE",
"34 0 CURVE SMOOTH"
);
},
{
closed = 1;
nodes = (
"421 0 LINE",
"421 78 LINE",
"411 78 LINE SMOOTH",
"349 78 OFFCURVE",
"294 99 OFFCURVE",
"248 155 CURVE",
"222 92 LINE",
"267 34 OFFCURVE",
"343 0 OFFCURVE",
"411 0 CURVE SMOOTH"
);
}
);
width = 387;
}
);
category = Letter;
},
{
glyphname = uni10D13.fina;
lastChange = "2019-08-04 20:47:24 +0000";
layers = (
{
layerId = UUID0;
paths = (
{
closed = 1;
nodes = (
"107 0 LINE SMOOTH",
"263 0 OFFCURVE",
"353 95 OFFCURVE",
"353 289 CURVE SMOOTH",
"353 714 LINE",
"264 714 LINE",
"264 289 LINE SMOOTH",
"264 137 OFFCURVE",
"204 78 OFFCURVE",
"107 78 CURVE SMOOTH",
"86 78 LINE",
"86 0 LINE"
);
},
{
closed = 1;
nodes = (
"90 0 LINE",
"90 78 LINE",
"10 78 LINE",
"10 16 LINE",
"21 10 OFFCURVE",
"52 0 OFFCURVE",
"78 0 CURVE SMOOTH"
);
},
{
closed = 1;
nodes = (
"479 0 LINE",
"479 78 LINE",
"469 78 LINE SMOOTH",
"407 78 OFFCURVE",
"352 99 OFFCURVE",
"316 155 CURVE",
"290 92 LINE",
"325 34 OFFCURVE",
"401 0 OFFCURVE",
"469 0 CURVE SMOOTH"
);
}
);
width = 445;
}
);
leftMetricsKey = uni10D13;
rightMetricsKey = uni10D13.medi;
category = Letter;
},
{
glyphname = uni10D14;
lastChange = "2019-08-04 20:50:49 +0000";
layers = (
{
layerId = UUID0;
paths = (
{
closed = 1;
nodes = (
"350 0 OFFCURVE",
"413 51 OFFCURVE",
"462 122 CURVE SMOOTH",
"600 323 LINE",
"527 312 LINE",
"558 292 OFFCURVE",
"597 255 OFFCURVE",
"597 174 CURVE SMOOTH",
"597 109 OFFCURVE",
"556 78 OFFCURVE",
"490 78 CURVE SMOOTH",
"448 78 OFFCURVE",
"423 93 OFFCURVE",
"393 116 CURVE",
"354 54 LINE",
"400 16 OFFCURVE",
"441 0 OFFCURVE",
"510 0 CURVE SMOOTH",
"614 0 OFFCURVE",
"686 63 OFFCURVE",
"686 174 CURVE SMOOTH",
"686 266 OFFCURVE",
"629 355 OFFCURVE",
"554 400 CURVE",
"394 170 LINE SMOOTH",
"346 100 OFFCURVE",
"324 78 OFFCURVE",
"285 78 CURVE SMOOTH",
"242 78 OFFCURVE",
"214 110 OFFCURVE",
"214 179 CURVE SMOOTH",
"214 544 LINE SMOOTH",
"214 620 OFFCURVE",
"246 636 OFFCURVE",
"277 636 CURVE SMOOTH",
"311 636 OFFCURVE",
"338 609 OFFCURVE",
"338 569 CURVE SMOOTH",
"338 527 OFFCURVE",
"305 501 OFFCURVE",
"246 501 CURVE SMOOTH",
"18 501 LINE",
"18 423 LINE",
"249 423 LINE SMOOTH",
"356 423 OFFCURVE",
"427 482 OFFCURVE",
"427 569 CURVE SMOOTH",
"427 650 OFFCURVE",
"368 714 OFFCURVE",
"277 714 CURVE SMOOTH",
"182 714 OFFCURVE",
"125 645 OFFCURVE",
"125 544 CURVE SMOOTH",
"125 199 LINE SMOOTH",
"125 81 OFFCURVE",
"182 0 OFFCURVE",
"285 0 CURVE SMOOTH"
);
}
);
width = 716;
}
);
unicode = 10D14;
category = Letter;
},
{
glyphname = uni10D14.init;
lastChange = "2019-08-04 20:47:24 +0000";
layers = (
{
layerId = UUID0;
paths = (
{
closed = 1;
nodes = (
"46 0 LINE SMOOTH",
"111 0 OFFCURVE",
"174 51 OFFCURVE",
"223 122 CURVE SMOOTH",
"361 323 LINE",
"288 312 LINE",
"319 292 OFFCURVE",
"358 255 OFFCURVE",
"358 174 CURVE SMOOTH",
"358 109 OFFCURVE",
"317 78 OFFCURVE",
"251 78 CURVE SMOOTH",
"209 78 OFFCURVE",
"184 93 OFFCURVE",
"154 116 CURVE",
"115 54 LINE",
"161 16 OFFCURVE",
"202 0 OFFCURVE",
"271 0 CURVE SMOOTH",
"375 0 OFFCURVE",
"447 63 OFFCURVE",
"447 174 CURVE SMOOTH",
"447 266 OFFCURVE",
"390 355 OFFCURVE",
"315 400 CURVE",
"155 170 LINE SMOOTH",
"107 100 OFFCURVE",
"85 78 OFFCURVE",
"46 78 CURVE SMOOTH",
"29 78 LINE",
"29 0 LINE"
);
},
{
closed = 1;
nodes = (
"46 0 LINE",
"46 78 LINE",
"-34 78 LINE",
"-34 16 LINE",
"-23 10 OFFCURVE",
"8 0 OFFCURVE",
"34 0 CURVE SMOOTH"
);
}
);
width = 477;
}
);
leftMetricsKey = uni10D14.medi;
rightMetricsKey = uni10D14;
category = Letter;
},
{
glyphname = uni10D14.medi;
lastChange = "2019-08-04 20:47:24 +0000";
layers = (
{
layerId = UUID0;
paths = (
{
closed = 1;
nodes = (
"46 0 LINE SMOOTH",
"111 0 OFFCURVE",
"174 51 OFFCURVE",
"223 122 CURVE SMOOTH",
"361 323 LINE",
"288 312 LINE",
"319 292 OFFCURVE",
"358 255 OFFCURVE",
"358 174 CURVE SMOOTH",
"358 109 OFFCURVE",
"317 78 OFFCURVE",
"251 78 CURVE SMOOTH",
"209 78 OFFCURVE",
"184 93 OFFCURVE",
"154 116 CURVE",
"115 54 LINE",
"161 16 OFFCURVE",
"202 0 OFFCURVE",
"271 0 CURVE SMOOTH",
"375 0 OFFCURVE",
"447 63 OFFCURVE",
"447 174 CURVE SMOOTH",
"447 266 OFFCURVE",
"390 355 OFFCURVE",
"315 400 CURVE",
"155 170 LINE SMOOTH",
"107 100 OFFCURVE",
"85 78 OFFCURVE",
"46 78 CURVE SMOOTH",
"29 78 LINE",
"29 0 LINE"
);
},
{
closed = 1;
nodes = (
"46 0 LINE",
"46 78 LINE",
"-34 78 LINE",
"-34 16 LINE",
"-23 10 OFFCURVE",
"8 0 OFFCURVE",
"34 0 CURVE SMOOTH"
);
},
{
closed = 1;
nodes = (
"539 0 LINE",
"539 78 LINE",
"529 78 LINE SMOOTH",
"467 78 OFFCURVE",
"412 99 OFFCURVE",
"376 155 CURVE",
"350 92 LINE",
"385 34 OFFCURVE",
"461 0 OFFCURVE",
"529 0 CURVE SMOOTH"
);
}
);
width = 505;
}
);
category = Letter;
},
{
glyphname = uni10D14.fina;
lastChange = "2019-08-04 20:49:17 +0000";
layers = (
{
layerId = UUID0;
paths = (
{
closed = 1;
nodes = (
"103 0 LINE SMOOTH",
"174 0 OFFCURVE",
"228 25 OFFCURVE",
"259 73 CURVE",
"234 72 LINE",
"262 28 OFFCURVE",
"300 0 OFFCURVE",
"361 0 CURVE SMOOTH",
"426 0 OFFCURVE",
"489 51 OFFCURVE",
"538 122 CURVE SMOOTH",
"676 323 LINE",
"603 312 LINE",
"634 292 OFFCURVE",
"673 255 OFFCURVE",
"673 174 CURVE SMOOTH",
"673 109 OFFCURVE",
"632 78 OFFCURVE",
"566 78 CURVE SMOOTH",
"524 78 OFFCURVE",
"499 93 OFFCURVE",
"469 116 CURVE",
"430 54 LINE",
"476 16 OFFCURVE",
"517 0 OFFCURVE",
"586 0 CURVE SMOOTH",
"690 0 OFFCURVE",
"762 63 OFFCURVE",
"762 174 CURVE SMOOTH",
"762 266 OFFCURVE",
"705 355 OFFCURVE",
"630 400 CURVE",
"470 170 LINE SMOOTH",
"422 100 OFFCURVE",
"400 78 OFFCURVE",
"361 78 CURVE SMOOTH",
"318 78 OFFCURVE",
"290 110 OFFCURVE",
"290 179 CURVE SMOOTH",
"290 544 LINE SMOOTH",
"290 620 OFFCURVE",
"322 636 OFFCURVE",
"353 636 CURVE SMOOTH",
"387 636 OFFCURVE",
"414 609 OFFCURVE",
"414 569 CURVE SMOOTH",
"414 527 OFFCURVE",
"381 501 OFFCURVE",
"322 501 CURVE SMOOTH",
"94 501 LINE",
"94 423 LINE",
"325 423 LINE SMOOTH",
"432 423 OFFCURVE",
"503 482 OFFCURVE",
"503 569 CURVE SMOOTH",
"503 650 OFFCURVE",
"444 714 OFFCURVE",
"353 714 CURVE SMOOTH",
"258 714 OFFCURVE",
"201 645 OFFCURVE",
"201 544 CURVE SMOOTH",
"201 199 LINE SMOOTH",
"201 114 OFFCURVE",
"167 78 OFFCURVE",
"103 78 CURVE SMOOTH",
"86 78 LINE",
"86 0 LINE"
);
},
{
closed = 1;
nodes = (
"90 0 LINE",
"90 78 LINE",
"10 78 LINE",
"10 16 LINE",
"21 10 OFFCURVE",
"52 0 OFFCURVE",
"78 0 CURVE SMOOTH"
);
},
{
closed = 1;
nodes = (
"841 0 LINE",
"841 78 LINE",
"831 78 LINE SMOOTH",
"769 78 OFFCURVE",
"714 99 OFFCURVE",
"678 155 CURVE",
"652 92 LINE",
"687 34 OFFCURVE",
"763 0 OFFCURVE",
"831 0 CURVE SMOOTH"
);
}
);
width = 807;
}
);
rightMetricsKey = uni10D14.medi;
category = Letter;
},
{
glyphname = uni10D15.init;
lastChange = "2019-08-04 20:47:24 +0000";
layers = (
{
layerId = UUID0;
paths = (
{
closed = 1;
nodes = (
"182 0 OFFCURVE",
"248 67 OFFCURVE",
"248 238 CURVE SMOOTH",
"248 482 LINE SMOOTH",
"248 576 OFFCURVE",
"317 636 OFFCURVE",
"418 636 CURVE SMOOTH",
"520 636 OFFCURVE",
"588 576 OFFCURVE",
"588 482 CURVE SMOOTH",
"588 0 LINE",
"677 0 LINE",
"677 482 LINE SMOOTH",
"677 632 OFFCURVE",
"572 714 OFFCURVE",
"418 714 CURVE SMOOTH",
"264 714 OFFCURVE",
"159 632 OFFCURVE",
"159 482 CURVE SMOOTH",
"159 238 LINE SMOOTH",
"159 116 OFFCURVE",
"130 78 OFFCURVE",
"46 78 CURVE",
"46 0 LINE"
);
},
{
closed = 1;
nodes = (
"46 0 LINE",
"46 78 LINE",
"-34 78 LINE",
"-34 16 LINE",
"-23 10 OFFCURVE",
"8 0 OFFCURVE",
"34 0 CURVE SMOOTH"
);
},
{
closed = 1;
nodes = (
"445 0 OFFCURVE",
"502 79 OFFCURVE",
"502 171 CURVE SMOOTH",
"502 269 OFFCURVE",
"446 350 OFFCURVE",
"329 350 CURVE SMOOTH",
"267 350 OFFCURVE",
"224 328 OFFCURVE",
"192 311 CURVE",
"221 238 LINE",
"252 261 OFFCURVE",
"281 272 OFFCURVE",
"320 272 CURVE SMOOTH",
"382 272 OFFCURVE",
"413 231 OFFCURVE",
"413 172 CURVE SMOOTH",
"413 119 OFFCURVE",
"382 78 OFFCURVE",
"330 78 CURVE SMOOTH",
"284 78 OFFCURVE",
"250 99 OFFCURVE",
"228 131 CURVE",
"180 65 LINE",
"219 28 OFFCURVE",
"258 0 OFFCURVE",
"330 0 CURVE SMOOTH"
);
}
);
width = 757;
}
);
leftMetricsKey = uni10D15.medi;
rightMetricsKey = uni10D15;
category = Letter;
},
{
glyphname = uni10D16.init;
lastChange = "2019-08-04 20:47:24 +0000";
layers = (
{
layerId = UUID0;
paths = (
{
closed = 1;
nodes = (
"99 0 LINE SMOOTH",
"317 0 OFFCURVE",
"402 79 OFFCURVE",
"402 200 CURVE SMOOTH",
"402 305 OFFCURVE",
"318 375 OFFCURVE",
"197 375 CURVE",
"205 329 LINE",
"311 445 LINE SMOOTH",
"345 483 OFFCURVE",
"368 527 OFFCURVE",
"368 569 CURVE SMOOTH",
"368 650 OFFCURVE",
"309 714 OFFCURVE",
"218 714 CURVE SMOOTH",
"123 714 OFFCURVE",
"66 652 OFFCURVE",
"66 569 CURVE SMOOTH",
"66 481 OFFCURVE",
"132 429 OFFCURVE",
"218 429 CURVE SMOOTH",
"256 429 OFFCURVE",
"287 450 OFFCURVE",
"313 471 CURVE",
"279 529 LINE",
"267 514 OFFCURVE",
"248 502 OFFCURVE",
"218 502 CURVE SMOOTH",
"181 502 OFFCURVE",
"155 523 OFFCURVE",
"155 568 CURVE SMOOTH",
"155 617 OFFCURVE",
"187 636 OFFCURVE",
"218 636 CURVE SMOOTH",
"252 636 OFFCURVE",
"279 607 OFFCURVE",
"279 568 CURVE SMOOTH",
"279 529 OFFCURVE",
"260 497 OFFCURVE",
"241 476 CURVE SMOOTH",
"120 342 LINE",
"144 299 LINE",
"174 299 LINE SMOOTH",
"264 299 OFFCURVE",
"313 260 OFFCURVE",
"313 200 CURVE SMOOTH",
"313 131 OFFCURVE",
"263 78 OFFCURVE",
"99 78 CURVE SMOOTH",
"37 78 LINE",
"37 0 LINE"
);
},
{
closed = 1;
nodes = (
"46 0 LINE",
"46 78 LINE",
"-34 78 LINE",
"-34 16 LINE",
"-23 10 OFFCURVE",
"8 0 OFFCURVE",
"34 0 CURVE SMOOTH"
);
}
);
width = 447;
}
);
leftMetricsKey = uni10D16.medi;
rightMetricsKey = uni10D16;
category = Letter;
},
{
glyphname = uni10D16.medi;
lastChange = "2019-08-04 20:47:24 +0000";
layers = (
{
layerId = UUID0;
paths = (
{
closed = 1;
nodes = (
"99 0 LINE SMOOTH",
"317 0 OFFCURVE",
"402 79 OFFCURVE",
"402 200 CURVE SMOOTH",
"402 305 OFFCURVE",
"318 375 OFFCURVE",
"197 375 CURVE",
"205 329 LINE",
"311 445 LINE SMOOTH",
"345 483 OFFCURVE",
"368 527 OFFCURVE",
"368 569 CURVE SMOOTH",
"368 650 OFFCURVE",
"309 714 OFFCURVE",
"218 714 CURVE SMOOTH",
"123 714 OFFCURVE",
"66 652 OFFCURVE",
"66 569 CURVE SMOOTH",
"66 481 OFFCURVE",
"132 429 OFFCURVE",
"218 429 CURVE SMOOTH",
"256 429 OFFCURVE",
"287 450 OFFCURVE",
"313 471 CURVE",
"279 529 LINE",
"267 514 OFFCURVE",
"248 502 OFFCURVE",
"218 502 CURVE SMOOTH",
"181 502 OFFCURVE",
"155 523 OFFCURVE",
"155 568 CURVE SMOOTH",
"155 617 OFFCURVE",
"187 636 OFFCURVE",
"218 636 CURVE SMOOTH",
"252 636 OFFCURVE",
"279 607 OFFCURVE",
"279 568 CURVE SMOOTH",
"279 529 OFFCURVE",
"260 497 OFFCURVE",
"241 476 CURVE SMOOTH",
"120 342 LINE",
"144 299 LINE",
"174 299 LINE SMOOTH",
"264 299 OFFCURVE",
"313 260 OFFCURVE",
"313 200 CURVE SMOOTH",
"313 131 OFFCURVE",
"263 78 OFFCURVE",
"99 78 CURVE SMOOTH",
"37 78 LINE",
"37 0 LINE"
);
},
{
closed = 1;
nodes = (
"46 0 LINE",
"46 78 LINE",
"-34 78 LINE",
"-34 16 LINE",
"-23 10 OFFCURVE",
"8 0 OFFCURVE",
"34 0 CURVE SMOOTH"
);
},
{
closed = 1;
nodes = (
"476 0 LINE",
"476 78 LINE",
"466 78 LINE SMOOTH",
"404 78 OFFCURVE",
"349 99 OFFCURVE",
"313 155 CURVE",
"287 92 LINE",
"322 34 OFFCURVE",
"398 0 OFFCURVE",
"466 0 CURVE SMOOTH"
);
}
);
width = 442;
}
);
category = Letter;
},
{
glyphname = uni10D17.init;
lastChange = "2019-08-04 20:47:24 +0000";
layers = (
{
layerId = UUID0;
paths = (
{
closed = 1;
nodes = (
"133 0 LINE SMOOTH",
"308 0 OFFCURVE",
"409 95 OFFCURVE",
"409 289 CURVE SMOOTH",
"409 596 LINE SMOOTH",
"409 669 OFFCURVE",
"366 716 OFFCURVE",
"307 716 CURVE SMOOTH",
"300 716 OFFCURVE",
"270 712 OFFCURVE",
"227 705 CURVE SMOOTH",
"156 694 LINE SMOOTH",
"36 675 OFFCURVE",
"-10 626 OFFCURVE",
"-10 553 CURVE SMOOTH",
"-10 482 OFFCURVE",
"47 426 OFFCURVE",
"131 426 CURVE SMOOTH",
"216 426 OFFCURVE",
"265 475 OFFCURVE",
"265 572 CURVE SMOOTH",
"265 649 LINE",
"182 649 LINE",
"182 572 LINE SMOOTH",
"182 522 OFFCURVE",
"162 504 OFFCURVE",
"131 504 CURVE SMOOTH",
"100 504 OFFCURVE",
"79 526 OFFCURVE",
"79 556 CURVE SMOOTH",
"79 591 OFFCURVE",
"99 603 OFFCURVE",
"174 614 CURVE SMOOTH",
"320 636 LINE",
"320 289 LINE SMOOTH",
"320 137 OFFCURVE",
"248 78 OFFCURVE",
"133 78 CURVE SMOOTH",
"46 78 LINE",
"46 0 LINE"
);
},
{
closed = 1;
nodes = (
"46 0 LINE",
"46 78 LINE",
"-34 78 LINE",
"-34 16 LINE",
"-23 10 OFFCURVE",
"8 0 OFFCURVE",
"34 0 CURVE SMOOTH"
);
}
);
width = 489;
}
);
leftMetricsKey = uni10D17.medi;
rightMetricsKey = uni10D17;
category = Letter;
},
{
glyphname = uni10D17.medi;
lastChange = "2019-08-04 20:47:24 +0000";
layers = (
{
layerId = UUID0;
paths = (
{
closed = 1;
nodes = (
"133 0 LINE SMOOTH",
"308 0 OFFCURVE",
"409 95 OFFCURVE",
"409 289 CURVE SMOOTH",
"409 596 LINE SMOOTH",
"409 669 OFFCURVE",
"366 716 OFFCURVE",
"307 716 CURVE SMOOTH",
"300 716 OFFCURVE",
"270 712 OFFCURVE",
"227 705 CURVE SMOOTH",
"156 694 LINE SMOOTH",
"36 675 OFFCURVE",
"-10 626 OFFCURVE",
"-10 553 CURVE SMOOTH",
"-10 482 OFFCURVE",
"47 426 OFFCURVE",
"131 426 CURVE SMOOTH",
"216 426 OFFCURVE",
"265 475 OFFCURVE",
"265 572 CURVE SMOOTH",
"265 649 LINE",
"182 649 LINE",
"182 572 LINE SMOOTH",
"182 522 OFFCURVE",
"162 504 OFFCURVE",
"131 504 CURVE SMOOTH",
"100 504 OFFCURVE",
"79 526 OFFCURVE",
"79 556 CURVE SMOOTH",
"79 591 OFFCURVE",
"99 603 OFFCURVE",
"174 614 CURVE SMOOTH",
"320 636 LINE",
"320 289 LINE SMOOTH",
"320 137 OFFCURVE",
"248 78 OFFCURVE",
"133 78 CURVE SMOOTH",
"46 78 LINE",
"46 0 LINE"
);
},
{
closed = 1;
nodes = (
"46 0 LINE",
"46 78 LINE",
"-34 78 LINE",
"-34 16 LINE",
"-23 10 OFFCURVE",
"8 0 OFFCURVE",
"34 0 CURVE SMOOTH"
);
},
{
closed = 1;
nodes = (
"508 0 LINE",
"508 78 LINE",
"498 78 LINE SMOOTH",
"436 78 OFFCURVE",
"381 99 OFFCURVE",
"345 155 CURVE",
"319 92 LINE",
"354 34 OFFCURVE",
"430 0 OFFCURVE",
"498 0 CURVE SMOOTH"
);
}
);
width = 474;
}
);
category = Letter;
},
{
glyphname = uni10D18.init;
lastChange = "2019-08-04 20:47:24 +0000";
layers = (
{
layerId = UUID0;
paths = (
{
closed = 1;
nodes = (
"63 0 LINE SMOOTH",
"238 0 OFFCURVE",
"339 95 OFFCURVE",
"339 289 CURVE SMOOTH",
"339 511 LINE SMOOTH",
"339 645 OFFCURVE",
"277 714 OFFCURVE",
"174 714 CURVE SMOOTH",
"81 714 OFFCURVE",
"27 651 OFFCURVE",
"27 573 CURVE SMOOTH",
"27 485 OFFCURVE",
"102 423 OFFCURVE",
"226 423 CURVE SMOOTH",
"446 423 LINE",
"446 501 LINE",
"238 501 LINE SMOOTH",
"160 501 OFFCURVE",
"116 527 OFFCURVE",
"116 573 CURVE SMOOTH",
"116 613 OFFCURVE",
"141 636 OFFCURVE",
"177 636 CURVE SMOOTH",
"216 636 OFFCURVE",
"250 607 OFFCURVE",
"250 511 CURVE SMOOTH",
"250 289 LINE SMOOTH",
"250 137 OFFCURVE",
"178 78 OFFCURVE",
"63 78 CURVE SMOOTH",
"46 78 LINE",
"46 0 LINE"
);
},
{
closed = 1;
nodes = (
"46 0 LINE",
"46 78 LINE",
"-34 78 LINE",
"-34 16 LINE",
"-23 10 OFFCURVE",
"8 0 OFFCURVE",
"34 0 CURVE SMOOTH"
);
}
);
width = 456;
}
);
leftMetricsKey = uni10D18.medi;
rightMetricsKey = uni10D18;
category = Letter;
},
{
glyphname = uni10D18.medi;
lastChange = "2019-08-04 20:47:24 +0000";
layers = (
{
layerId = UUID0;
paths = (
{
closed = 1;
nodes = (
"63 0 LINE SMOOTH",
"238 0 OFFCURVE",
"339 95 OFFCURVE",
"339 289 CURVE SMOOTH",
"339 511 LINE SMOOTH",
"339 645 OFFCURVE",
"277 714 OFFCURVE",
"174 714 CURVE SMOOTH",
"81 714 OFFCURVE",
"27 651 OFFCURVE",
"27 573 CURVE SMOOTH",
"27 485 OFFCURVE",
"102 423 OFFCURVE",
"226 423 CURVE SMOOTH",
"446 423 LINE",
"446 501 LINE",
"238 501 LINE SMOOTH",
"160 501 OFFCURVE",
"116 527 OFFCURVE",
"116 573 CURVE SMOOTH",
"116 613 OFFCURVE",
"141 636 OFFCURVE",
"177 636 CURVE SMOOTH",
"216 636 OFFCURVE",
"250 607 OFFCURVE",
"250 511 CURVE SMOOTH",
"250 289 LINE SMOOTH",
"250 137 OFFCURVE",
"178 78 OFFCURVE",
"63 78 CURVE SMOOTH",
"46 78 LINE",
"46 0 LINE"
);
},
{
closed = 1;
nodes = (
"46 0 LINE",
"46 78 LINE",
"-34 78 LINE",
"-34 16 LINE",
"-23 10 OFFCURVE",
"8 0 OFFCURVE",
"34 0 CURVE SMOOTH"
);
},
{
closed = 1;
nodes = (
"470 0 LINE",
"470 78 LINE",
"460 78 LINE SMOOTH",
"398 78 OFFCURVE",
"343 99 OFFCURVE",
"307 155 CURVE",
"281 92 LINE",
"316 34 OFFCURVE",
"392 0 OFFCURVE",
"460 0 CURVE SMOOTH"
);
}
);
width = 436;
}
);
category = Letter;
},
{
glyphname = uni10D19.medi;
lastChange = "2019-08-04 20:47:24 +0000";
layers = (
{
layerId = UUID0;
paths = (
{
closed = 1;
nodes = (
"49 0 LINE SMOOTH",
"173 0 OFFCURVE",
"239 82 OFFCURVE",
"239 247 CURVE SMOOTH",
"239 323 LINE",
"150 323 LINE",
"150 247 LINE SMOOTH",
"150 130 OFFCURVE",
"119 78 OFFCURVE",
"24 78 CURVE",
"34 0 LINE"
);
},
{
closed = 1;
nodes = (
"46 0 LINE",
"46 78 LINE",
"-34 78 LINE",
"-34 16 LINE",
"-23 10 OFFCURVE",
"8 0 OFFCURVE",
"34 0 CURVE SMOOTH"
);
},
{
closed = 1;
nodes = (
"220 -162 OFFCURVE",
"246 -144 OFFCURVE",
"246 -102 CURVE SMOOTH",
"246 -60 OFFCURVE",
"220 -42 OFFCURVE",
"187 -42 CURVE SMOOTH",
"153 -42 OFFCURVE",
"128 -60 OFFCURVE",
"128 -102 CURVE SMOOTH",
"128 -144 OFFCURVE",
"153 -162 OFFCURVE",
"187 -162 CURVE SMOOTH"
);
},
{
closed = 1;
nodes = (
"391 0 LINE",
"391 78 LINE",
"381 78 LINE SMOOTH",
"319 78 OFFCURVE",
"264 99 OFFCURVE",
"228 155 CURVE",
"202 92 LINE",
"237 34 OFFCURVE",
"313 0 OFFCURVE",
"381 0 CURVE SMOOTH"
);
}
);
width = 357;
}
);
category = Letter;
},
{
glyphname = uni10D19.init;
lastChange = "2019-08-04 20:47:24 +0000";
layers = (
{
layerId = UUID0;
paths = (
{
closed = 1;
nodes = (
"49 0 LINE SMOOTH",
"173 0 OFFCURVE",
"239 82 OFFCURVE",
"239 247 CURVE SMOOTH",
"239 323 LINE",
"150 323 LINE",
"150 247 LINE SMOOTH",
"150 130 OFFCURVE",
"119 78 OFFCURVE",
"24 78 CURVE",
"34 0 LINE"
);
},
{
closed = 1;
nodes = (
"46 0 LINE",
"46 78 LINE",
"-34 78 LINE",
"-34 16 LINE",
"-23 10 OFFCURVE",
"8 0 OFFCURVE",
"34 0 CURVE SMOOTH"
);
},
{
closed = 1;
nodes = (
"220 -162 OFFCURVE",
"246 -144 OFFCURVE",
"246 -102 CURVE SMOOTH",
"246 -60 OFFCURVE",
"220 -42 OFFCURVE",
"187 -42 CURVE SMOOTH",
"153 -42 OFFCURVE",
"128 -60 OFFCURVE",
"128 -102 CURVE SMOOTH",
"128 -144 OFFCURVE",
"153 -162 OFFCURVE",
"187 -162 CURVE SMOOTH"
);
}
);
width = 326;
}
);
leftMetricsKey = uni10D19.medi;
rightMetricsKey = uni10D19;
category = Letter;
},
{
glyphname = uni10D1A.init;
lastChange = "2019-08-04 20:47:24 +0000";
layers = (
{
layerId = UUID0;
paths = (
{
closed = 1;
nodes = (
"99 0 OFFCURVE",
"148 32 OFFCURVE",
"226 116 CURVE SMOOTH",
"423 328 LINE",
"449 350 LINE",
"626 536 LINE",
"511 536 LINE",
"448 464 LINE",
"423 443 LINE",
"171 175 LINE SMOOTH",
"102 101 OFFCURVE",
"77 80 OFFCURVE",
"26 78 CURVE",
"46 0 LINE"
);
},
{
closed = 1;
nodes = (
"46 0 LINE",
"46 78 LINE",
"-34 78 LINE",
"-34 16 LINE",
"-23 10 OFFCURVE",
"8 0 OFFCURVE",
"34 0 CURVE SMOOTH"
);
},
{
closed = 1;
nodes = (
"401 0 OFFCURVE",
"479 54 OFFCURVE",
"479 199 CURVE SMOOTH",
"479 714 LINE",
"390 714 LINE",
"390 199 LINE SMOOTH",
"390 110 OFFCURVE",
"352 78 OFFCURVE",
"287 78 CURVE SMOOTH",
"227 78 OFFCURVE",
"181 95 OFFCURVE",
"139 119 CURVE",
"104 60 LINE",
"162 23 OFFCURVE",
"212 0 OFFCURVE",
"297 0 CURVE SMOOTH"
);
}
);
width = 636;
}
);
leftMetricsKey = uni10D1A.medi;
rightMetricsKey = uni10D1A;
category = Letter;
},
{
glyphname = uni10D1A.medi;
lastChange = "2019-08-04 20:47:24 +0000";
layers = (
{
layerId = UUID0;
paths = (
{
closed = 1;
nodes = (
"99 0 OFFCURVE",
"148 32 OFFCURVE",
"226 116 CURVE SMOOTH",
"423 328 LINE",
"449 350 LINE",
"626 536 LINE",
"511 536 LINE",
"448 464 LINE",
"423 443 LINE",
"171 175 LINE SMOOTH",
"102 101 OFFCURVE",
"77 80 OFFCURVE",
"26 78 CURVE",
"46 0 LINE"
);
},
{
closed = 1;
nodes = (
"46 0 LINE",
"46 78 LINE",
"-34 78 LINE",
"-34 16 LINE",
"-23 10 OFFCURVE",
"8 0 OFFCURVE",
"34 0 CURVE SMOOTH"
);
},
{
closed = 1;
nodes = (
"626 0 LINE",
"626 78 LINE",
"616 78 LINE SMOOTH",
"554 78 OFFCURVE",
"499 99 OFFCURVE",
"463 155 CURVE",
"437 92 LINE",
"472 34 OFFCURVE",
"548 0 OFFCURVE",
"616 0 CURVE SMOOTH"
);
},
{
closed = 1;
nodes = (
"401 0 OFFCURVE",
"479 54 OFFCURVE",
"479 199 CURVE SMOOTH",
"479 714 LINE",
"390 714 LINE",
"390 199 LINE SMOOTH",
"390 110 OFFCURVE",
"352 78 OFFCURVE",
"287 78 CURVE SMOOTH",
"227 78 OFFCURVE",
"181 95 OFFCURVE",
"139 119 CURVE",
"104 60 LINE",
"162 23 OFFCURVE",
"212 0 OFFCURVE",
"297 0 CURVE SMOOTH"
);
}
);
width = 592;
}
);
category = Letter;
},
{
glyphname = uni10D1B.init;
lastChange = "2019-08-04 20:47:24 +0000";
layers = (
{
layerId = UUID0;
paths = (
{
closed = 1;
nodes = (
"63 0 LINE SMOOTH",
"233 0 OFFCURVE",
"310 110 OFFCURVE",
"310 289 CURVE SMOOTH",
"310 714 LINE",
"221 714 LINE",
"221 289 LINE SMOOTH",
"221 153 OFFCURVE",
"173 78 OFFCURVE",
"63 78 CURVE SMOOTH",
"42 78 LINE",
"42 0 LINE"
);
},
{
closed = 1;
nodes = (
"46 0 LINE",
"46 78 LINE",
"-34 78 LINE",
"-34 16 LINE",
"-23 10 OFFCURVE",
"8 0 OFFCURVE",
"34 0 CURVE SMOOTH"
);
},
{
closed = 1;
nodes = (
"486 364 LINE",
"486 419 LINE SMOOTH",
"486 500 OFFCURVE",
"433 536 OFFCURVE",
"364 536 CURVE SMOOTH",
"278 536 LINE",
"278 458 LINE",
"397 458 LINE",
"397 364 LINE"
);
}
);
width = 496;
}
);
leftMetricsKey = uni10D1B.medi;
rightMetricsKey = uni10D1B;
category = Letter;
},
{
glyphname = uni10D1B.medi;
lastChange = "2019-08-04 20:47:24 +0000";
layers = (
{
layerId = UUID0;
paths = (
{
closed = 1;
nodes = (
"63 0 LINE SMOOTH",
"233 0 OFFCURVE",
"310 110 OFFCURVE",
"310 289 CURVE SMOOTH",
"310 714 LINE",
"221 714 LINE",
"221 289 LINE SMOOTH",
"221 153 OFFCURVE",
"173 78 OFFCURVE",
"63 78 CURVE SMOOTH",
"42 78 LINE",
"42 0 LINE"
);
},
{
closed = 1;
nodes = (
"46 0 LINE",
"46 78 LINE",
"-34 78 LINE",
"-34 16 LINE",
"-23 10 OFFCURVE",
"8 0 OFFCURVE",
"34 0 CURVE SMOOTH"
);
},
{
closed = 1;
nodes = (
"516 0 LINE",
"516 78 LINE",
"426 78 LINE SMOOTH",
"364 78 OFFCURVE",
"309 99 OFFCURVE",
"273 155 CURVE",
"247 92 LINE",
"282 34 OFFCURVE",
"358 0 OFFCURVE",
"426 0 CURVE SMOOTH"
);
},
{
closed = 1;
nodes = (
"486 364 LINE",
"486 419 LINE SMOOTH",
"486 500 OFFCURVE",
"433 536 OFFCURVE",
"364 536 CURVE SMOOTH",
"278 536 LINE",
"278 458 LINE",
"397 458 LINE",
"397 364 LINE"
);
}
);
width = 482;
}
);
category = Letter;
},
{
glyphname = uni10D1C.init;
lastChange = "2018-12-11 14:19:31 +0000";
layers = (
{
components = (
{
name = uni10D02.init;
}
);
layerId = UUID0;
paths = (
{
closed = 1;
nodes = (
"223 714 OFFCURVE",
"249 732 OFFCURVE",
"249 774 CURVE SMOOTH",
"249 816 OFFCURVE",
"223 834 OFFCURVE",
"190 834 CURVE SMOOTH",
"156 834 OFFCURVE",
"131 816 OFFCURVE",
"131 774 CURVE SMOOTH",
"131 732 OFFCURVE",
"156 714 OFFCURVE",
"190 714 CURVE SMOOTH"
);
},
{
closed = 1;
nodes = (
"123 584 OFFCURVE",
"149 602 OFFCURVE",
"149 644 CURVE SMOOTH",
"149 686 OFFCURVE",
"123 704 OFFCURVE",
"90 704 CURVE SMOOTH",
"56 704 OFFCURVE",
"31 686 OFFCURVE",
"31 644 CURVE SMOOTH",
"31 602 OFFCURVE",
"56 584 OFFCURVE",
"90 584 CURVE SMOOTH"
);
},
{
closed = 1;
nodes = (
"323 584 OFFCURVE",
"349 602 OFFCURVE",
"349 644 CURVE SMOOTH",
"349 686 OFFCURVE",
"323 704 OFFCURVE",
"290 704 CURVE SMOOTH",
"256 704 OFFCURVE",
"231 686 OFFCURVE",
"231 644 CURVE SMOOTH",
"231 602 OFFCURVE",
"256 584 OFFCURVE",
"290 584 CURVE SMOOTH"
);
}
);
width = 402;
}
);
leftMetricsKey = uni10D1C.medi;
rightMetricsKey = uni10D1C;
category = Letter;
},
{
glyphname = uni10D1C.medi;
lastChange = "2019-08-04 20:47:24 +0000";
layers = (
{
layerId = UUID0;
paths = (
{
closed = 1;
nodes = (
"56 0 LINE SMOOTH",
"247 0 OFFCURVE",
"357 140 OFFCURVE",
"357 332 CURVE SMOOTH",
"357 465 OFFCURVE",
"295 536 OFFCURVE",
"191 536 CURVE SMOOTH",
"100 536 OFFCURVE",
"45 472 OFFCURVE",
"45 395 CURVE SMOOTH",
"45 308 OFFCURVE",
"120 245 OFFCURVE",
"239 245 CURVE SMOOTH",
"284 245 LINE",
"284 323 LINE",
"250 323 LINE SMOOTH",
"171 323 OFFCURVE",
"134 356 OFFCURVE",
"134 395 CURVE SMOOTH",
"134 435 OFFCURVE",
"160 458 OFFCURVE",
"194 458 CURVE SMOOTH",
"234 458 OFFCURVE",
"268 428 OFFCURVE",
"268 332 CURVE SMOOTH",
"268 180 OFFCURVE",
"185 78 OFFCURVE",
"56 78 CURVE SMOOTH",
"42 78 LINE",
"42 0 LINE"
);
},
{
closed = 1;
nodes = (
"46 0 LINE",
"46 78 LINE",
"-34 78 LINE",
"-34 16 LINE",
"-23 10 OFFCURVE",
"8 0 OFFCURVE",
"34 0 CURVE SMOOTH"
);
},
{
closed = 1;
nodes = (
"449 0 LINE",
"449 78 LINE",
"439 78 LINE SMOOTH",
"377 78 OFFCURVE",
"322 99 OFFCURVE",
"286 155 CURVE",
"260 92 LINE",
"295 34 OFFCURVE",
"371 0 OFFCURVE",
"439 0 CURVE SMOOTH"
);
},
{
closed = 1;
nodes = (
"123 584 OFFCURVE",
"149 602 OFFCURVE",
"149 644 CURVE SMOOTH",
"149 686 OFFCURVE",
"123 704 OFFCURVE",
"90 704 CURVE SMOOTH",
"56 704 OFFCURVE",
"31 686 OFFCURVE",
"31 644 CURVE SMOOTH",
"31 602 OFFCURVE",
"56 584 OFFCURVE",
"90 584 CURVE SMOOTH"
);
},
{
closed = 1;
nodes = (
"323 584 OFFCURVE",
"349 602 OFFCURVE",
"349 644 CURVE SMOOTH",
"349 686 OFFCURVE",
"323 704 OFFCURVE",
"290 704 CURVE SMOOTH",
"256 704 OFFCURVE",
"231 686 OFFCURVE",
"231 644 CURVE SMOOTH",
"231 602 OFFCURVE",
"256 584 OFFCURVE",
"290 584 CURVE SMOOTH"
);
},
{
closed = 1;
nodes = (
"223 714 OFFCURVE",
"249 732 OFFCURVE",
"249 774 CURVE SMOOTH",
"249 816 OFFCURVE",
"223 834 OFFCURVE",
"190 834 CURVE SMOOTH",
"156 834 OFFCURVE",
"131 816 OFFCURVE",
"131 774 CURVE SMOOTH",
"131 732 OFFCURVE",
"156 714 OFFCURVE",
"190 714 CURVE SMOOTH"
);
}
);
width = 415;
}
);
category = Letter;
},
{
glyphname = uni10D1D.medi;
lastChange = "2019-08-04 20:47:24 +0000";
layers = (
{
layerId = UUID0;
paths = (
{
closed = 1;
nodes = (
"280 0 LINE SMOOTH",
"415 0 OFFCURVE",
"482 72 OFFCURVE",
"482 170 CURVE SMOOTH",
"482 248 OFFCURVE",
"427 323 OFFCURVE",
"327 323 CURVE SMOOTH",
"239 323 OFFCURVE",
"185 272 OFFCURVE",
"122 193 CURVE SMOOTH",
"80 140 OFFCURVE",
"56 110 OFFCURVE",
"18 74 CURVE",
"128 74 LINE",
"150 98 OFFCURVE",
"166 118 OFFCURVE",
"201 163 CURVE SMOOTH",
"241 215 OFFCURVE",
"274 245 OFFCURVE",
"321 245 CURVE SMOOTH",
"361 245 OFFCURVE",
"393 214 OFFCURVE",
"393 166 CURVE SMOOTH",
"393 117 OFFCURVE",
"366 78 OFFCURVE",
"283 78 CURVE SMOOTH",
"33 78 LINE",
"33 0 LINE"
);
},
{
closed = 1;
nodes = (
"46 0 LINE",
"46 78 LINE",
"-34 78 LINE",
"-34 16 LINE",
"-23 10 OFFCURVE",
"8 0 OFFCURVE",
"34 0 CURVE SMOOTH"
);
},
{
closed = 1;
nodes = (
"564 0 LINE",
"564 78 LINE",
"554 78 LINE SMOOTH",
"492 78 OFFCURVE",
"437 99 OFFCURVE",
"401 155 CURVE",
"375 92 LINE",
"410 34 OFFCURVE",
"486 0 OFFCURVE",
"554 0 CURVE SMOOTH"
);
}
);
width = 530;
}
);
category = Letter;
},
{
glyphname = uni10D1D.init;
lastChange = "2019-08-04 20:47:24 +0000";
layers = (
{
layerId = UUID0;
paths = (
{
closed = 1;
nodes = (
"280 0 LINE SMOOTH",
"415 0 OFFCURVE",
"482 72 OFFCURVE",
"482 170 CURVE SMOOTH",
"482 248 OFFCURVE",
"427 323 OFFCURVE",
"327 323 CURVE SMOOTH",
"239 323 OFFCURVE",
"185 272 OFFCURVE",
"122 193 CURVE SMOOTH",
"80 140 OFFCURVE",
"56 110 OFFCURVE",
"18 74 CURVE",
"128 74 LINE",
"150 98 OFFCURVE",
"166 118 OFFCURVE",
"201 163 CURVE SMOOTH",
"241 215 OFFCURVE",
"274 245 OFFCURVE",
"321 245 CURVE SMOOTH",
"361 245 OFFCURVE",
"393 214 OFFCURVE",
"393 166 CURVE SMOOTH",
"393 117 OFFCURVE",
"366 78 OFFCURVE",
"283 78 CURVE SMOOTH",
"33 78 LINE",
"33 0 LINE"
);
},
{
closed = 1;
nodes = (
"46 0 LINE",
"46 78 LINE",
"-34 78 LINE",
"-34 16 LINE",
"-23 10 OFFCURVE",
"8 0 OFFCURVE",
"34 0 CURVE SMOOTH"
);
}
);
width = 527;
}
);
leftMetricsKey = uni10D1D.medi;
rightMetricsKey = uni10D1D;
category = Letter;
},
{
glyphname = uni10D1E.medi;
lastChange = "2019-08-04 20:47:24 +0000";
layers = (
{
layerId = UUID0;
paths = (
{
closed = 1;
nodes = (
"49 0 LINE SMOOTH",
"173 0 OFFCURVE",
"239 82 OFFCURVE",
"239 247 CURVE SMOOTH",
"239 323 LINE",
"150 323 LINE",
"150 247 LINE SMOOTH",
"150 130 OFFCURVE",
"119 78 OFFCURVE",
"24 78 CURVE",
"34 0 LINE"
);
},
{
closed = 1;
nodes = (
"84 -232 LINE SMOOTH",
"176 -232 OFFCURVE",
"240 -176 OFFCURVE",
"240 -77 CURVE SMOOTH",
"240 -53 LINE",
"151 -53 LINE",
"151 -77 LINE SMOOTH",
"151 -124 OFFCURVE",
"123 -154 OFFCURVE",
"74 -154 CURVE SMOOTH",
"11 -154 LINE",
"11 -216 LINE",
"22 -224 OFFCURVE",
"48 -232 OFFCURVE",
"60 -232 CURVE SMOOTH"
);
},
{
closed = 1;
nodes = (
"46 0 LINE",
"46 78 LINE",
"-34 78 LINE",
"-34 16 LINE",
"-23 10 OFFCURVE",
"8 0 OFFCURVE",
"34 0 CURVE SMOOTH"
);
},
{
closed = 1;
nodes = (
"391 0 LINE",
"391 78 LINE",
"381 78 LINE SMOOTH",
"319 78 OFFCURVE",
"264 99 OFFCURVE",
"228 155 CURVE",
"202 92 LINE",
"237 34 OFFCURVE",
"313 0 OFFCURVE",
"381 0 CURVE SMOOTH"
);
}
);
width = 357;
}
);
category = Letter;
},
{
glyphname = uni10D1E.init;
lastChange = "2019-08-04 20:47:24 +0000";
layers = (
{
layerId = UUID0;
paths = (
{
closed = 1;
nodes = (
"49 0 LINE SMOOTH",
"173 0 OFFCURVE",
"239 82 OFFCURVE",
"239 247 CURVE SMOOTH",
"239 323 LINE",
"150 323 LINE",
"150 247 LINE SMOOTH",
"150 130 OFFCURVE",
"119 78 OFFCURVE",
"24 78 CURVE",
"34 0 LINE"
);
},
{
closed = 1;
nodes = (
"84 -232 LINE SMOOTH",
"176 -232 OFFCURVE",
"240 -176 OFFCURVE",
"240 -77 CURVE SMOOTH",
"240 -53 LINE",
"151 -53 LINE",
"151 -77 LINE SMOOTH",
"151 -124 OFFCURVE",
"123 -154 OFFCURVE",
"74 -154 CURVE SMOOTH",
"11 -154 LINE",
"11 -216 LINE",
"22 -224 OFFCURVE",
"48 -232 OFFCURVE",
"60 -232 CURVE SMOOTH"
);
},
{
closed = 1;
nodes = (
"46 0 LINE",
"46 78 LINE",
"-34 78 LINE",
"-34 16 LINE",
"-23 10 OFFCURVE",
"8 0 OFFCURVE",
"34 0 CURVE SMOOTH"
);
}
);
width = 320;
}
);
leftMetricsKey = uni10D1E.medi;
rightMetricsKey = uni10D1E;
category = Letter;
},
{
glyphname = uni10D1F.init;
lastChange = "2019-08-04 20:47:16 +0000";
layers = (
{
layerId = UUID0;
paths = (
{
closed = 1;
nodes = (
"49 0 LINE SMOOTH",
"116 0 OFFCURVE",
"166 24 OFFCURVE",
"198 72 CURVE",
"236 24 OFFCURVE",
"299 0 OFFCURVE",
"358 0 CURVE SMOOTH",
"373 0 LINE SMOOTH",
"497 0 OFFCURVE",
"563 82 OFFCURVE",
"563 247 CURVE SMOOTH",
"563 323 LINE",
"474 323 LINE",
"474 247 LINE SMOOTH",
"474 160 OFFCURVE",
"456 108 OFFCURVE",
"408 88 CURVE SMOOTH",
"393 82 OFFCURVE",
"376 78 OFFCURVE",
"358 78 CURVE SMOOTH",
"349 78 OFFCURVE",
"334 80 OFFCURVE",
"322 84 CURVE SMOOTH",
"272 100 OFFCURVE",
"239 148 OFFCURVE",
"239 229 CURVE SMOOTH",
"239 323 LINE",
"150 323 LINE",
"150 247 LINE SMOOTH",
"150 130 OFFCURVE",
"119 78 OFFCURVE",
"24 78 CURVE SMOOTH",
"-34 78 LINE",
"-34 16 LINE",
"-23 10 OFFCURVE",
"8 0 OFFCURVE",
"34 0 CURVE SMOOTH"
);
}
);
width = 643;
}
);
leftMetricsKey = uni10D1F.medi;
rightMetricsKey = uni10D1F;
category = Letter;
},
{
glyphname = uni10D1F.medi;
lastChange = "2019-08-04 20:47:16 +0000";
layers = (
{
layerId = UUID0;
paths = (
{
closed = 1;
nodes = (
"49 0 LINE SMOOTH",
"116 0 OFFCURVE",
"166 24 OFFCURVE",
"198 72 CURVE",
"236 24 OFFCURVE",
"299 0 OFFCURVE",
"358 0 CURVE SMOOTH",
"373 0 LINE SMOOTH",
"440 0 OFFCURVE",
"489 24 OFFCURVE",
"521 71 CURVE",
"560 26 OFFCURVE",
"626 0 OFFCURVE",
"685 0 CURVE SMOOTH",
"695 0 LINE",
"695 78 LINE",
"685 78 LINE SMOOTH",
"632 78 OFFCURVE",
"584 93 OFFCURVE",
"549 133 CURVE",
"558 165 OFFCURVE",
"563 203 OFFCURVE",
"563 247 CURVE SMOOTH",
"563 323 LINE",
"474 323 LINE",
"474 247 LINE SMOOTH",
"474 160 OFFCURVE",
"456 108 OFFCURVE",
"408 88 CURVE SMOOTH",
"393 82 OFFCURVE",
"376 78 OFFCURVE",
"358 78 CURVE SMOOTH",
"349 78 OFFCURVE",
"334 80 OFFCURVE",
"322 84 CURVE SMOOTH",
"272 100 OFFCURVE",
"239 148 OFFCURVE",
"239 229 CURVE SMOOTH",
"239 323 LINE",
"150 323 LINE",
"150 247 LINE SMOOTH",
"150 130 OFFCURVE",
"119 78 OFFCURVE",
"24 78 CURVE SMOOTH",
"-34 78 LINE",
"-34 16 LINE",
"-23 10 OFFCURVE",
"8 0 OFFCURVE",
"34 0 CURVE SMOOTH"
);
}
);
width = 661;
}
);
category = Letter;
},
{
glyphname = uni10D20;
lastChange = "2019-08-04 20:47:24 +0000";
layers = (
{
layerId = UUID0;
paths = (
{
closed = 1;
nodes = (
"93 0 LINE SMOOTH",
"217 0 OFFCURVE",
"283 82 OFFCURVE",
"283 247 CURVE SMOOTH",
"283 323 LINE",
"194 323 LINE",
"194 247 LINE SMOOTH",
"194 130 OFFCURVE",
"163 78 OFFCURVE",
"68 78 CURVE",
"78 0 LINE"
);
},
{
closed = 1;
nodes = (
"90 0 LINE",
"90 78 LINE",
"10 78 LINE",
"10 16 LINE",
"21 10 OFFCURVE",
"52 0 OFFCURVE",
"78 0 CURVE SMOOTH"
);
},
{
closed = 1;
nodes = (
"354 -232 LINE SMOOTH",
"366 -232 OFFCURVE",
"392 -224 OFFCURVE",
"403 -216 CURVE",
"403 -154 LINE",
"340 -154 LINE SMOOTH",
"291 -154 OFFCURVE",
"263 -124 OFFCURVE",
"263 -77 CURVE SMOOTH",
"263 -53 LINE",
"174 -53 LINE",
"174 -77 LINE SMOOTH",
"174 -176 OFFCURVE",
"238 -232 OFFCURVE",
"330 -232 CURVE SMOOTH"
);
}
);
width = 413;
}
);
unicode = 10D20;
category = Letter;
},
{
glyphname = uni10D20.init;
lastChange = "2019-08-04 20:47:24 +0000";
layers = (
{
layerId = UUID0;
paths = (
{
closed = 1;
nodes = (
"49 0 LINE SMOOTH",
"173 0 OFFCURVE",
"239 82 OFFCURVE",
"239 247 CURVE SMOOTH",
"239 323 LINE",
"150 323 LINE",
"150 247 LINE SMOOTH",
"150 130 OFFCURVE",
"119 78 OFFCURVE",
"24 78 CURVE",
"34 0 LINE"
);
},
{
closed = 1;
nodes = (
"46 0 LINE",
"46 78 LINE",
"-34 78 LINE",
"-34 16 LINE",
"-23 10 OFFCURVE",
"8 0 OFFCURVE",
"34 0 CURVE SMOOTH"
);
},
{
closed = 1;
nodes = (
"330 -232 LINE SMOOTH",
"342 -232 OFFCURVE",
"368 -224 OFFCURVE",
"379 -216 CURVE",
"379 -154 LINE",
"316 -154 LINE SMOOTH",
"267 -154 OFFCURVE",
"239 -124 OFFCURVE",
"239 -77 CURVE SMOOTH",
"239 -53 LINE",
"150 -53 LINE",
"150 -77 LINE SMOOTH",
"150 -176 OFFCURVE",
"214 -232 OFFCURVE",
"306 -232 CURVE SMOOTH"
);
}
);
width = 389;
}
);
leftMetricsKey = uni10D20.medi;
rightMetricsKey = uni10D20;
category = Letter;
},
{
glyphname = uni10D20.medi;
lastChange = "2019-08-04 20:47:24 +0000";
layers = (
{
layerId = UUID0;
paths = (
{
closed = 1;
nodes = (
"49 0 LINE SMOOTH",
"173 0 OFFCURVE",
"239 82 OFFCURVE",
"239 247 CURVE SMOOTH",
"239 323 LINE",
"150 323 LINE",
"150 247 LINE SMOOTH",
"150 130 OFFCURVE",
"119 78 OFFCURVE",
"24 78 CURVE",
"34 0 LINE"
);
},
{
closed = 1;
nodes = (
"46 0 LINE",
"46 78 LINE",
"-34 78 LINE",
"-34 16 LINE",
"-23 10 OFFCURVE",
"8 0 OFFCURVE",
"34 0 CURVE SMOOTH"
);
},
{
closed = 1;
nodes = (
"330 -232 LINE SMOOTH",
"342 -232 OFFCURVE",
"368 -224 OFFCURVE",
"379 -216 CURVE",
"379 -154 LINE",
"316 -154 LINE SMOOTH",
"267 -154 OFFCURVE",
"239 -124 OFFCURVE",
"239 -77 CURVE SMOOTH",
"239 -53 LINE",
"150 -53 LINE",
"150 -77 LINE SMOOTH",
"150 -176 OFFCURVE",
"214 -232 OFFCURVE",
"306 -232 CURVE SMOOTH"
);
},
{
closed = 1;
nodes = (
"379 0 LINE",
"379 78 LINE",
"369 78 LINE SMOOTH",
"307 78 OFFCURVE",
"252 99 OFFCURVE",
"216 155 CURVE",
"190 92 LINE",
"225 34 OFFCURVE",
"301 0 OFFCURVE",
"369 0 CURVE SMOOTH"
);
}
);
width = 345;
}
);
category = Letter;
},
{
glyphname = uni10D21.init;
lastChange = "2019-08-04 20:47:24 +0000";
layers = (
{
layerId = UUID0;
paths = (
{
closed = 1;
nodes = (
"219 0 LINE SMOOTH",
"379 0 OFFCURVE",
"439 67 OFFCURVE",
"439 154 CURVE SMOOTH",
"439 246 OFFCURVE",
"387 285 OFFCURVE",
"293 295 CURVE",
"293 267 LINE",
"364 267 OFFCURVE",
"403 309 OFFCURVE",
"403 381 CURVE SMOOTH",
"403 472 OFFCURVE",
"357 536 OFFCURVE",
"249 536 CURVE SMOOTH",
"158 536 OFFCURVE",
"94 478 OFFCURVE",
"94 364 CURVE SMOOTH",
"94 39 LINE",
"183 39 LINE",
"183 364 LINE SMOOTH",
"183 434 OFFCURVE",
"207 458 OFFCURVE",
"249 458 CURVE SMOOTH",
"292 458 OFFCURVE",
"314 434 OFFCURVE",
"314 381 CURVE SMOOTH",
"314 335 OFFCURVE",
"293 312 OFFCURVE",
"236 312 CURVE",
"236 236 LINE",
"310 236 OFFCURVE",
"350 209 OFFCURVE",
"350 154 CURVE SMOOTH",
"350 107 OFFCURVE",
"318 78 OFFCURVE",
"229 78 CURVE SMOOTH",
"39 78 LINE",
"39 0 LINE"
);
},
{
closed = 1;
nodes = (
"46 0 LINE",
"46 78 LINE",
"-34 78 LINE",
"-34 16 LINE",
"-23 10 OFFCURVE",
"8 0 OFFCURVE",
"34 0 CURVE SMOOTH"
);
}
);
width = 484;
}
);
leftMetricsKey = uni10D21.medi;
rightMetricsKey = uni10D21;
category = Letter;
},
{
glyphname = uni10D21.medi;
lastChange = "2019-08-04 20:47:24 +0000";
layers = (
{
layerId = UUID0;
paths = (
{
closed = 1;
nodes = (
"219 0 LINE SMOOTH",
"379 0 OFFCURVE",
"439 67 OFFCURVE",
"439 154 CURVE SMOOTH",
"439 246 OFFCURVE",
"387 285 OFFCURVE",
"293 295 CURVE",
"293 267 LINE",
"364 267 OFFCURVE",
"403 309 OFFCURVE",
"403 381 CURVE SMOOTH",
"403 472 OFFCURVE",
"357 536 OFFCURVE",
"249 536 CURVE SMOOTH",
"158 536 OFFCURVE",
"94 478 OFFCURVE",
"94 364 CURVE SMOOTH",
"94 39 LINE",
"183 39 LINE",
"183 364 LINE SMOOTH",
"183 434 OFFCURVE",
"207 458 OFFCURVE",
"249 458 CURVE SMOOTH",
"292 458 OFFCURVE",
"314 434 OFFCURVE",
"314 381 CURVE SMOOTH",
"314 335 OFFCURVE",
"293 312 OFFCURVE",
"236 312 CURVE",
"236 236 LINE",
"310 236 OFFCURVE",
"350 209 OFFCURVE",
"350 154 CURVE SMOOTH",
"350 107 OFFCURVE",
"318 78 OFFCURVE",
"229 78 CURVE SMOOTH",
"39 78 LINE",
"39 0 LINE"
);
},
{
closed = 1;
nodes = (
"46 0 LINE",
"46 78 LINE",
"-34 78 LINE",
"-34 16 LINE",
"-23 10 OFFCURVE",
"8 0 OFFCURVE",
"34 0 CURVE SMOOTH"
);
},
{
closed = 1;
nodes = (
"528 0 LINE",
"528 78 LINE",
"518 78 LINE SMOOTH",
"456 78 OFFCURVE",
"401 99 OFFCURVE",
"365 155 CURVE",
"339 92 LINE",
"374 34 OFFCURVE",
"450 0 OFFCURVE",
"518 0 CURVE SMOOTH"
);
}
);
width = 494;
}
);
category = Letter;
},
{
glyphname = uni10D22;
lastChange = "2019-08-04 20:47:24 +0000";
layers = (
{
layerId = UUID0;
paths = (
{
closed = 1;
nodes = (
"93 0 LINE SMOOTH",
"217 0 OFFCURVE",
"283 82 OFFCURVE",
"283 247 CURVE SMOOTH",
"283 323 LINE",
"194 323 LINE",
"194 247 LINE SMOOTH",
"194 130 OFFCURVE",
"163 78 OFFCURVE",
"68 78 CURVE",
"78 0 LINE"
);
},
{
closed = 1;
nodes = (
"90 0 LINE",
"90 78 LINE",
"10 78 LINE",
"10 16 LINE",
"21 10 OFFCURVE",
"52 0 OFFCURVE",
"78 0 CURVE SMOOTH"
);
}
);
width = 363;
}
);
unicode = 10D22;
category = Letter;
},
{
glyphname = uni10D22.fina;
lastChange = "2019-08-04 20:47:24 +0000";
layers = (
{
layerId = UUID0;
paths = (
{
closed = 1;
nodes = (
"93 0 LINE SMOOTH",
"217 0 OFFCURVE",
"283 82 OFFCURVE",
"283 247 CURVE SMOOTH",
"283 323 LINE",
"194 323 LINE",
"194 247 LINE SMOOTH",
"194 130 OFFCURVE",
"163 78 OFFCURVE",
"68 78 CURVE",
"78 0 LINE"
);
},
{
closed = 1;
nodes = (
"90 0 LINE",
"90 78 LINE",
"10 78 LINE",
"10 16 LINE",
"21 10 OFFCURVE",
"52 0 OFFCURVE",
"78 0 CURVE SMOOTH"
);
},
{
closed = 1;
nodes = (
"423 0 LINE",
"423 78 LINE",
"413 78 LINE SMOOTH",
"351 78 OFFCURVE",
"296 99 OFFCURVE",
"260 155 CURVE",
"234 92 LINE",
"269 34 OFFCURVE",
"345 0 OFFCURVE",
"413 0 CURVE SMOOTH"
);
}
);
width = 389;
}
);
leftMetricsKey = uni10D22;
category = Letter;
},
{
glyphname = uni10D23;
lastChange = "2019-08-04 20:47:24 +0000";
layers = (
{
layerId = UUID0;
paths = (
{
closed = 1;
nodes = (
"93 0 LINE SMOOTH",
"217 0 OFFCURVE",
"283 82 OFFCURVE",
"283 247 CURVE SMOOTH",
"283 323 LINE",
"194 323 LINE",
"194 247 LINE SMOOTH",
"194 130 OFFCURVE",
"163 78 OFFCURVE",
"68 78 CURVE",
"78 0 LINE"
);
},
{
closed = 1;
nodes = (
"90 0 LINE",
"90 78 LINE",
"10 78 LINE",
"10 16 LINE",
"21 10 OFFCURVE",
"52 0 OFFCURVE",
"78 0 CURVE SMOOTH"
);
},
{
closed = 1;
nodes = (
"271 416 OFFCURVE",
"297 434 OFFCURVE",
"297 476 CURVE SMOOTH",
"297 518 OFFCURVE",
"271 536 OFFCURVE",
"241 536 CURVE SMOOTH",
"210 536 OFFCURVE",
"185 518 OFFCURVE",
"185 476 CURVE SMOOTH",
"185 434 OFFCURVE",
"210 416 OFFCURVE",
"241 416 CURVE SMOOTH"
);
}
);
width = 372;
}
);
unicode = 10D23;
category = Letter;
},
{
glyphname = uni10D23.init;
lastChange = "2019-08-04 20:47:24 +0000";
layers = (
{
layerId = UUID0;
paths = (
{
closed = 1;
nodes = (
"49 0 LINE SMOOTH",
"173 0 OFFCURVE",
"239 82 OFFCURVE",
"239 247 CURVE SMOOTH",
"239 323 LINE",
"150 323 LINE",
"150 247 LINE SMOOTH",
"150 130 OFFCURVE",
"119 78 OFFCURVE",
"24 78 CURVE",
"34 0 LINE"
);
},
{
closed = 1;
nodes = (
"46 0 LINE",
"46 78 LINE",
"-34 78 LINE",
"-34 16 LINE",
"-23 10 OFFCURVE",
"8 0 OFFCURVE",
"34 0 CURVE SMOOTH"
);
},
{
closed = 1;
nodes = (
"227 416 OFFCURVE",
"253 434 OFFCURVE",
"253 476 CURVE SMOOTH",
"253 518 OFFCURVE",
"227 536 OFFCURVE",
"197 536 CURVE SMOOTH",
"166 536 OFFCURVE",
"141 518 OFFCURVE",
"141 476 CURVE SMOOTH",
"141 434 OFFCURVE",
"166 416 OFFCURVE",
"197 416 CURVE SMOOTH"
);
}
);
width = 328;
}
);
leftMetricsKey = uni10D23.medi;
rightMetricsKey = uni10D23;
category = Letter;
},
{
glyphname = uni10D23.medi;
lastChange = "2019-08-04 20:47:24 +0000";
layers = (
{
layerId = UUID0;
paths = (
{
closed = 1;
nodes = (
"49 0 LINE SMOOTH",
"173 0 OFFCURVE",
"239 82 OFFCURVE",
"239 247 CURVE SMOOTH",
"239 323 LINE",
"150 323 LINE",
"150 247 LINE SMOOTH",
"150 130 OFFCURVE",
"119 78 OFFCURVE",
"24 78 CURVE",
"34 0 LINE"
);
},
{
closed = 1;
nodes = (
"46 0 LINE",
"46 78 LINE",
"-34 78 LINE",
"-34 16 LINE",
"-23 10 OFFCURVE",
"8 0 OFFCURVE",
"34 0 CURVE SMOOTH"
);
},
{
closed = 1;
nodes = (
"379 0 LINE",
"379 78 LINE",
"369 78 LINE SMOOTH",
"307 78 OFFCURVE",
"252 99 OFFCURVE",
"216 155 CURVE",
"190 92 LINE",
"225 34 OFFCURVE",
"301 0 OFFCURVE",
"369 0 CURVE SMOOTH"
);
},
{
closed = 1;
nodes = (
"227 416 OFFCURVE",
"253 434 OFFCURVE",
"253 476 CURVE SMOOTH",
"253 518 OFFCURVE",
"227 536 OFFCURVE",
"197 536 CURVE SMOOTH",
"166 536 OFFCURVE",
"141 518 OFFCURVE",
"141 476 CURVE SMOOTH",
"141 434 OFFCURVE",
"166 416 OFFCURVE",
"197 416 CURVE SMOOTH"
);
}
);
width = 345;
}
);
category = Letter;
},
{
glyphname = uni10D24;
lastChange = "2018-12-11 14:19:31 +0000";
layers = (
{
layerId = UUID0;
paths = (
{
closed = 1;
nodes = (
"63 852 OFFCURVE",
"111 887 OFFCURVE",
"111 961 CURVE SMOOTH",
"111 1039 LINE",
"40 1039 LINE",
"40 961 LINE SMOOTH",
"40 936 OFFCURVE",
"24 916 OFFCURVE",
"-7 916 CURVE SMOOTH",
"-37 916 OFFCURVE",
"-49 931 OFFCURVE",
"-58 947 CURVE",
"-81 888 LINE",
"-67 869 OFFCURVE",
"-35 852 OFFCURVE",
"4 852 CURVE SMOOTH"
);
},
{
closed = 1;
nodes = (
"-40 762 LINE",
"-40 1039 LINE",
"-111 1039 LINE",
"-111 762 LINE"
);
}
);
width = 0;
}
);
unicode = 10D24;
category = Mark;
},
{
glyphname = uni10D25;
lastChange = "2018-12-11 14:19:31 +0000";
layers = (
{
layerId = UUID0;
paths = (
{
closed = 1;
nodes = (
"16 762 LINE",
"46 779 OFFCURVE",
"78 816 OFFCURVE",
"78 850 CURVE SMOOTH",
"78 878 OFFCURVE",
"62 902 OFFCURVE",
"42 920 CURVE SMOOTH",
"22 938 OFFCURVE",
"0 958 OFFCURVE",
"0 976 CURVE SMOOTH",
"0 996 OFFCURVE",
"25 1017 OFFCURVE",
"60 1039 CURVE",
"-28 1039 LINE",
"-51 1021 OFFCURVE",
"-77 992 OFFCURVE",
"-77 962 CURVE SMOOTH",
"-77 936 OFFCURVE",
"-55 915 OFFCURVE",
"-36 897 CURVE SMOOTH",
"-14 877 OFFCURVE",
"0 862 OFFCURVE",
"0 843 CURVE SMOOTH",
"0 819 OFFCURVE",
"-44 785 OFFCURVE",
"-78 762 CURVE"
);
}
);
width = 0;
}
);
unicode = 10D25;
category = Mark;
},
{
glyphname = uni10D26;
lastChange = "2018-12-11 14:19:31 +0000";
layers = (
{
layerId = UUID0;
paths = (
{
closed = 1;
nodes = (
"-128 894 OFFCURVE",
"-103 924 OFFCURVE",
"-60 924 CURVE SMOOTH",
"-42 924 OFFCURVE",
"-25 920 OFFCURVE",
"-7 914 CURVE SMOOTH",
"14 907 OFFCURVE",
"38 902 OFFCURVE",
"68 902 CURVE SMOOTH",
"143 902 OFFCURVE",
"183 943 OFFCURVE",
"212 1024 CURVE",
"142 1050 LINE",
"124 1007 OFFCURVE",
"110 977 OFFCURVE",
"63 977 CURVE SMOOTH",
"41 977 OFFCURVE",
"22 981 OFFCURVE",
"3 987 CURVE SMOOTH",
"-17 993 OFFCURVE",
"-38 999 OFFCURVE",
"-66 999 CURVE SMOOTH",
"-132 999 OFFCURVE",
"-181 952 OFFCURVE",
"-212 901 CURVE",
"-150 861 LINE"
);
}
);
width = 0;
}
);
unicode = 10D26;
category = Mark;
},
{
glyphname = uni10D27;
lastChange = "2018-12-11 14:19:31 +0000";
layers = (
{
layerId = UUID0;
paths = (
{
closed = 1;
nodes = (
"-34 824 OFFCURVE",
"-2 848 OFFCURVE",
"20 905 CURVE",
"-16 905 LINE",
"3 849 OFFCURVE",
"35 824 OFFCURVE",
"83 824 CURVE SMOOTH",
"133 824 OFFCURVE",
"181 859 OFFCURVE",
"181 933 CURVE SMOOTH",
"181 1039 LINE",
"110 1039 LINE",
"110 933 LINE SMOOTH",
"110 900 OFFCURVE",
"94 888 OFFCURVE",
"73 888 CURVE SMOOTH",
"52 888 OFFCURVE",
"36 900 OFFCURVE",
"36 933 CURVE SMOOTH",
"36 999 LINE",
"-35 999 LINE",
"-35 933 LINE SMOOTH",
"-35 900 OFFCURVE",
"-51 888 OFFCURVE",
"-72 888 CURVE SMOOTH",
"-93 888 OFFCURVE",
"-109 900 OFFCURVE",
"-109 933 CURVE SMOOTH",
"-109 1039 LINE",
"-180 1039 LINE",
"-180 933 LINE SMOOTH",
"-180 859 OFFCURVE",
"-132 824 OFFCURVE",
"-82 824 CURVE SMOOTH"
);
}
);
width = 0;
}
);
unicode = 10D27;
category = Mark;
},
{
glyphname = uni0660;
lastChange = "2018-12-11 19:20:30 +0000";
layers = (
{
background = {
paths = (
{
closed = 1;
nodes = (
"233 321 OFFCURVE",
"233 334 QCURVE SMOOTH",
"233 342 OFFCURVE",
"186 383 OFFCURVE",
"132 414 QCURVE",
"115 389 OFFCURVE",
"88 336 OFFCURVE",
"71 309 QCURVE",
"125 280 OFFCURVE",
"178 240 QCURVE"
);
}
);
};
layerId = UUID0;
paths = (
{
closed = 1;
nodes = (
"215 294 OFFCURVE",
"233 325 OFFCURVE",
"233 334 CURVE SMOOTH",
"233 339 OFFCURVE",
"227 346 OFFCURVE",
"214 359 CURVE SMOOTH",
"201 372 OFFCURVE",
"174 390 OFFCURVE",
"132 414 CURVE",
"125 404 OFFCURVE",
"114 385 OFFCURVE",
"104 366 CURVE SMOOTH",
"92 344 OFFCURVE",
"79 321 OFFCURVE",
"71 309 CURVE",
"109 288 OFFCURVE",
"145 265 OFFCURVE",
"178 240 CURVE"
);
}
);
width = 309;
}
);
note = uni0660;
unicode = 0660;
category = Letter;
},
{
glyphname = uni10D30;
lastChange = "2018-12-11 14:19:31 +0000";
layers = (
{
layerId = UUID0;
paths = (
{
closed = 1;
nodes = (
"425 -10 OFFCURVE",
"486 140 OFFCURVE",
"486 352 CURVE SMOOTH",
"486 581 OFFCURVE",
"415 714 OFFCURVE",
"269 714 CURVE SMOOTH",
"118 714 OFFCURVE",
"54 584 OFFCURVE",
"54 352 CURVE SMOOTH",
"54 125 OFFCURVE",
"122 -10 OFFCURVE",
"277 -10 CURVE SMOOTH"
);
},
{
closed = 1;
nodes = (
"178 68 OFFCURVE",
"142 162 OFFCURVE",
"142 350 CURVE SMOOTH",
"142 541 OFFCURVE",
"176 636 OFFCURVE",
"269 636 CURVE SMOOTH",
"361 636 OFFCURVE",
"397 541 OFFCURVE",
"397 350 CURVE SMOOTH",
"397 168 OFFCURVE",
"361 68 OFFCURVE",
"273 68 CURVE SMOOTH"
);
}
);
width = 531;
}
);
unicode = 10D30;
category = Letter;
},
{
glyphname = uni10D31;
lastChange = "2018-12-11 14:19:31 +0000";
layers = (
{
layerId = UUID0;
paths = (
{
closed = 1;
nodes = (
"177 0 LINE",
"177 714 LINE",
"88 714 LINE",
"88 0 LINE"
);
}
);
width = 265;
}
);
unicode = 10D31;
category = Letter;
},
{
glyphname = uni10D32;
lastChange = "2018-12-11 14:19:31 +0000";
layers = (
{
layerId = UUID0;
paths = (
{
closed = 1;
nodes = (
"368 0 LINE",
"409 112 OFFCURVE",
"450 248 OFFCURVE",
"450 402 CURVE SMOOTH",
"450 600 OFFCURVE",
"362 714 OFFCURVE",
"216 714 CURVE SMOOTH",
"93 714 OFFCURVE",
"10 631 OFFCURVE",
"10 528 CURVE SMOOTH",
"10 420 OFFCURVE",
"92 350 OFFCURVE",
"206 350 CURVE SMOOTH",
"237 350 LINE",
"237 428 LINE",
"207 428 LINE SMOOTH",
"138 428 OFFCURVE",
"99 468 OFFCURVE",
"99 528 CURVE SMOOTH",
"99 592 OFFCURVE",
"146 636 OFFCURVE",
"216 636 CURVE SMOOTH",
"302 636 OFFCURVE",
"361 552 OFFCURVE",
"361 402 CURVE SMOOTH",
"361 252 OFFCURVE",
"317 114 OFFCURVE",
"273 0 CURVE"
);
}
);
width = 495;
}
);
unicode = 10D32;
category = Letter;
},
{
glyphname = uni10D33;
lastChange = "2018-12-11 14:19:31 +0000";
layers = (
{
layerId = UUID0;
paths = (
{
closed = 1;
nodes = (
"403 0 OFFCURVE",
"517 86 OFFCURVE",
"517 232 CURVE SMOOTH",
"517 391 OFFCURVE",
"427 466 OFFCURVE",
"265 569 CURVE SMOOTH",
"134 652 LINE",
"135 635 LINE",
"493 635 LINE",
"493 713 LINE",
"41 713 LINE",
"41 612 LINE",
"194 514 LINE SMOOTH",
"349 415 OFFCURVE",
"428 356 OFFCURVE",
"428 232 CURVE SMOOTH",
"428 137 OFFCURVE",
"364 78 OFFCURVE",
"260 78 CURVE SMOOTH",
"163 78 OFFCURVE",
"99 124 OFFCURVE",
"99 193 CURVE SMOOTH",
"99 252 OFFCURVE",
"139 289 OFFCURVE",
"209 289 CURVE SMOOTH",
"265 289 LINE",
"265 366 LINE",
"203 366 LINE SMOOTH",
"98 366 OFFCURVE",
"10 296 OFFCURVE",
"10 193 CURVE SMOOTH",
"10 82 OFFCURVE",
"99 0 OFFCURVE",
"260 0 CURVE SMOOTH"
);
}
);
width = 537;
}
);
unicode = 10D33;
category = Letter;
},
{
glyphname = uni10D34;
lastChange = "2018-12-11 14:19:31 +0000";
layers = (
{
layerId = UUID0;
paths = (
{
closed = 1;
nodes = (
"347 0 OFFCURVE",
"398 83 OFFCURVE",
"398 220 CURVE",
"320 220 LINE",
"320 134 OFFCURVE",
"297 78 OFFCURVE",
"241 78 CURVE SMOOTH",
"171 78 OFFCURVE",
"134 152 OFFCURVE",
"134 328 CURVE SMOOTH",
"134 505 OFFCURVE",
"195 588 OFFCURVE",
"282 588 CURVE SMOOTH",
"344 588 OFFCURVE",
"391 544 OFFCURVE",
"437 457 CURVE SMOOTH",
"487 362 OFFCURVE",
"515 226 OFFCURVE",
"515 107 CURVE SMOOTH",
"515 0 LINE",
"604 0 LINE",
"604 714 LINE",
"515 714 LINE",
"515 332 LINE",
"554 347 LINE",
"505 521 OFFCURVE",
"425 666 OFFCURVE",
"278 666 CURVE SMOOTH",
"154 666 OFFCURVE",
"45 560 OFFCURVE",
"45 328 CURVE SMOOTH",
"45 102 OFFCURVE",
"122 0 OFFCURVE",
"235 0 CURVE SMOOTH"
);
}
);
width = 692;
}
);
unicode = 10D34;
category = Letter;
},
{
glyphname = uni10D35;
lastChange = "2018-12-11 14:19:31 +0000";
layers = (
{
layerId = UUID0;
paths = (
{
closed = 1;
nodes = (
"538 1 LINE",
"538 79 LINE",
"426 79 LINE",
"426 113 LINE SMOOTH",
"426 330 OFFCURVE",
"502 378 OFFCURVE",
"617 432 CURVE SMOOTH",
"676 460 OFFCURVE",
"709 496 OFFCURVE",
"709 558 CURVE SMOOTH",
"709 610 OFFCURVE",
"672 649 OFFCURVE",
"617 649 CURVE SMOOTH",
"564 649 OFFCURVE",
"524 608 OFFCURVE",
"524 558 CURVE SMOOTH",
"524 506 OFFCURVE",
"569 474 OFFCURVE",
"611 474 CURVE",
"583 497 LINE",
"435 434 OFFCURVE",
"337 339 OFFCURVE",
"337 113 CURVE SMOOTH",
"337 81 LINE",
"220 81 OFFCURVE",
"99 176 OFFCURVE",
"99 356 CURVE SMOOTH",
"99 504 OFFCURVE",
"182 619 OFFCURVE",
"340 714 CURVE",
"226 714 LINE",
"104 640 OFFCURVE",
"10 508 OFFCURVE",
"10 357 CURVE SMOOTH",
"10 135 OFFCURVE",
"174 1 OFFCURVE",
"337 1 CURVE SMOOTH"
);
}
);
width = 719;
}
);
unicode = 10D35;
category = Letter;
},
{
glyphname = uni10D36;
lastChange = "2018-12-11 14:19:31 +0000";
layers = (
{
layerId = UUID0;
paths = (
{
closed = 1;
nodes = (
"413 0 OFFCURVE",
"523 94 OFFCURVE",
"523 332 CURVE SMOOTH",
"523 713 LINE",
"81 713 LINE",
"81 635 LINE",
"434 635 LINE",
"434 332 LINE SMOOTH",
"434 147 OFFCURVE",
"364 78 OFFCURVE",
"253 78 CURVE SMOOTH",
"163 78 OFFCURVE",
"99 128 OFFCURVE",
"99 207 CURVE SMOOTH",
"99 282 OFFCURVE",
"154 329 OFFCURVE",
"252 329 CURVE SMOOTH",
"320 329 LINE",
"320 407 LINE",
"246 407 LINE SMOOTH",
"107 407 OFFCURVE",
"10 325 OFFCURVE",
"10 207 CURVE SMOOTH",
"10 89 OFFCURVE",
"99 0 OFFCURVE",
"253 0 CURVE SMOOTH"
);
}
);
width = 611;
}
);
unicode = 10D36;
category = Letter;
},
{
glyphname = uni10D37;
lastChange = "2018-12-11 14:19:31 +0000";
layers = (
{
layerId = UUID0;
paths = (
{
closed = 1;
nodes = (
"277 0 OFFCURVE",
"332 64 OFFCURVE",
"410 175 CURVE SMOOTH",
"714 609 LINE",
"714 713 LINE",
"230 713 LINE",
"230 635 LINE",
"665 635 LINE",
"661 675 LINE",
"339 218 LINE SMOOTH",
"273 124 OFFCURVE",
"232 78 OFFCURVE",
"175 78 CURVE SMOOTH",
"126 78 OFFCURVE",
"99 106 OFFCURVE",
"99 145 CURVE SMOOTH",
"99 185 OFFCURVE",
"125 213 OFFCURVE",
"169 213 CURVE SMOOTH",
"224 213 OFFCURVE",
"255 185 OFFCURVE",
"316 117 CURVE SMOOTH",
"374 52 OFFCURVE",
"444 0 OFFCURVE",
"534 0 CURVE SMOOTH",
"608 0 OFFCURVE",
"668 33 OFFCURVE",
"714 73 CURVE",
"714 161 LINE",
"650 105 OFFCURVE",
"598 78 OFFCURVE",
"534 78 CURVE SMOOTH",
"462 78 OFFCURVE",
"414 129 OFFCURVE",
"369 178 CURVE SMOOTH",
"310 243 OFFCURVE",
"258 291 OFFCURVE",
"169 291 CURVE SMOOTH",
"68 291 OFFCURVE",
"10 222 OFFCURVE",
"10 145 CURVE SMOOTH",
"10 58 OFFCURVE",
"75 0 OFFCURVE",
"175 0 CURVE SMOOTH"
);
}
);
width = 724;
}
);
unicode = 10D37;
category = Letter;
},
{
glyphname = uni10D39;
lastChange = "2018-12-11 14:19:31 +0000";
layers = (
{
layerId = UUID0;
paths = (
{
closed = 1;
nodes = (
"358 2 LINE",
"512 159 LINE",
"512 272 LINE",
"339 99 LINE",
"362 104 LINE",
"362 536 LINE SMOOTH",
"362 644 OFFCURVE",
"296 714 OFFCURVE",
"182 714 CURVE SMOOTH",
"80 714 OFFCURVE",
"10 640 OFFCURVE",
"10 546 CURVE SMOOTH",
"10 440 OFFCURVE",
"93 383 OFFCURVE",
"177 383 CURVE SMOOTH",
"241 383 OFFCURVE",
"291 416 OFFCURVE",
"332 465 CURVE",
"280 518 LINE",
"266 486 OFFCURVE",
"224 461 OFFCURVE",
"186 461 CURVE SMOOTH",
"140 461 OFFCURVE",
"99 490 OFFCURVE",
"99 546 CURVE SMOOTH",
"99 595 OFFCURVE",
"129 636 OFFCURVE",
"183 636 CURVE SMOOTH",
"236 636 OFFCURVE",
"273 600 OFFCURVE",
"273 533 CURVE SMOOTH",
"273 2 LINE"
);
}
);
width = 522;
}
);
unicode = 10D39;
category = Letter;
},
{
glyphname = uni10D26.ss01;
lastChange = "2018-12-11 14:19:31 +0000";
layers = (
{
layerId = UUID0;
paths = (
{
closed = 1;
nodes = (
"-128 894 OFFCURVE",
"-103 924 OFFCURVE",
"-40 924 CURVE SMOOTH",
"-3 924 OFFCURVE",
"36 920 OFFCURVE",
"79 914 CURVE SMOOTH",
"122 908 OFFCURVE",
"169 902 OFFCURVE",
"222 902 CURVE SMOOTH",
"317 902 OFFCURVE",
"362 935 OFFCURVE",
"392 1024 CURVE",
"322 1050 LINE",
"304 1007 OFFCURVE",
"290 977 OFFCURVE",
"223 977 CURVE SMOOTH",
"177 977 OFFCURVE",
"135 982 OFFCURVE",
"94 988 CURVE SMOOTH",
"52 994 OFFCURVE",
"9 999 OFFCURVE",
"-41 999 CURVE SMOOTH",
"-122 999 OFFCURVE",
"-178 961 OFFCURVE",
"-212 901 CURVE",
"-150 861 LINE"
);
}
